<?xml version="1.0" encoding="UTF-8" ?>
<svg version="1.1" width="320" height="320" xmlns="http://www.w3.org/2000/svg" shape-rendering="crispEdges">
<rect x="40" y="20" width="25" height="20" fill="#FFFFFF" />
<rect x="65" y="20" width="5" height="25" fill="#BD5B5B" />
<rect x="70" y="20" width="180" height="25" fill="#FFFFFF" />
<rect x="250" y="20" width="5" height="25" fill="#FBEBED" />
<rect x="255" y="20" width="25" height="25" fill="#FFFFFF" />
<rect x="40" y="40" width="10" height="5" fill="#FFFFFF" />
<rect x="60" y="40" width="5" height="5" fill="#FFFFFF" />
<rect x="40" y="45" width="10" height="5" fill="#D9E5FD" />
<rect x="60" y="45" width="5" height="5" fill="#D9E5FD" />
<rect x="65" y="45" width="5" height="5" fill="#B5565B" />
<rect x="70" y="45" width="180" height="5" fill="#D9E5FD" />
<rect x="250" y="45" width="5" height="5" fill="#D8E0F8" />
<rect x="255" y="45" width="25" height="5" fill="#D9E5FD" />
<rect x="40" y="50" width="25" height="15" fill="#FFFFFF" />
<rect x="65" y="50" width="5" height="15" fill="#BD5B5B" />
<rect x="70" y="50" width="180" height="15" fill="#FFFFFF" />
<rect x="250" y="50" width="5" height="15" fill="#FBEBED" />
<rect x="255" y="50" width="25" height="15" fill="#FFFFFF" />
<rect x="40" y="65" width="25" height="5" fill="#D9E5FD" />
<rect x="65" y="65" width="5" height="5" fill="#B5565B" />
<rect x="70" y="65" width="180" height="5" fill="#D9E5FD" />
<rect x="250" y="65" width="5" height="5" fill="#D8E0F8" />
<rect x="255" y="65" width="25" height="5" fill="#D9E5FD" />
<rect x="40" y="70" width="25" height="15" fill="#FFFFFF" />
<rect x="65" y="70" width="5" height="15" fill="#BD5B5B" />
<rect x="70" y="70" width="180" height="15" fill="#FFFFFF" />
<rect x="250" y="70" width="5" height="15" fill="#FBEBED" />
<rect x="255" y="70" width="25" height="15" fill="#FFFFFF" />
<rect x="40" y="85" width="25" height="5" fill="#D9E5FD" />
<rect x="65" y="85" width="5" height="5" fill="#B5565B" />
<rect x="70" y="85" width="180" height="5" fill="#D9E5FD" />
<rect x="250" y="85" width="5" height="5" fill="#D8E0F8" />
<rect x="255" y="85" width="25" height="5" fill="#D9E5FD" />
<rect x="40" y="90" width="25" height="15" fill="#FFFFFF" />
<rect x="65" y="90" width="5" height="15" fill="#BD5B5B" />
<rect x="70" y="90" width="180" height="15" fill="#FFFFFF" />
<rect x="250" y="90" width="5" height="15" fill="#FBEBED" />
<rect x="255" y="90" width="25" height="15" fill="#FFFFFF" />
<rect x="40" y="105" width="25" height="5" fill="#D9E5FD" />
<rect x="65" y="105" width="5" height="5" fill="#B5565B" />
<rect x="70" y="105" width="180" height="5" fill="#D9E5FD" />
<rect x="250" y="105" width="5" height="5" fill="#D8E0F8" />
<rect x="255" y="105" width="25" height="5" fill="#D9E5FD" />
<rect x="40" y="110" width="25" height="15" fill="#FFFFFF" />
<rect x="65" y="110" width="5" height="15" fill="#BD5B5B" />
<rect x="70" y="110" width="180" height="15" fill="#FFFFFF" />
<rect x="250" y="110" width="5" height="15" fill="#FBEBED" />
<rect x="255" y="110" width="25" height="15" fill="#FFFFFF" />
<rect x="40" y="125" width="25" height="5" fill="#D9E5FD" />
<rect x="65" y="125" width="5" height="5" fill="#B5565B" />
<rect x="70" y="125" width="180" height="5" fill="#D9E5FD" />
<rect x="250" y="125" width="5" height="5" fill="#D8E0F8" />
<rect x="255" y="125" width="25" height="5" fill="#D9E5FD" />
<rect x="40" y="130" width="25" height="15" fill="#FFFFFF" />
<rect x="65" y="130" width="5" height="15" fill="#BD5B5B" />
<rect x="70" y="130" width="180" height="15" fill="#FFFFFF" />
<rect x="250" y="130" width="5" height="15" fill="#FBEBED" />
<rect x="255" y="130" width="25" height="15" fill="#FFFFFF" />
<rect x="40" y="145" width="25" height="5" fill="#D9E5FD" />
<rect x="65" y="145" width="5" height="5" fill="#B5565B" />
<rect x="70" y="145" width="180" height="5" fill="#D9E5FD" />
<rect x="250" y="145" width="5" height="5" fill="#D8E0F8" />
<rect x="255" y="145" width="25" height="5" fill="#D9E5FD" />
<rect x="40" y="150" width="25" height="5" fill="#FFFFFF" />
<rect x="65" y="150" width="5" height="15" fill="#BD5B5B" />
<rect x="70" y="150" width="180" height="15" fill="#FFFFFF" />
<rect x="250" y="150" width="5" height="15" fill="#FBEBED" />
<rect x="255" y="150" width="25" height="15" fill="#FFFFFF" />
<rect x="40" y="155" width="10" height="10" fill="#FFFFFF" />
<rect x="60" y="155" width="5" height="10" fill="#FFFFFF" />
<rect x="40" y="165" width="25" height="5" fill="#D9E5FD" />
<rect x="65" y="165" width="5" height="5" fill="#B5565B" />
<rect x="70" y="165" width="180" height="5" fill="#D9E5FD" />
<rect x="250" y="165" width="5" height="5" fill="#D8E0F8" />
<rect x="255" y="165" width="25" height="5" fill="#D9E5FD" />
<rect x="40" y="170" width="25" height="15" fill="#FFFFFF" />
<rect x="65" y="170" width="5" height="15" fill="#BD5B5B" />
<rect x="70" y="170" width="180" height="15" fill="#FFFFFF" />
<rect x="250" y="170" width="5" height="15" fill="#FBEBED" />
<rect x="255" y="170" width="25" height="15" fill="#FFFFFF" />
<rect x="40" y="185" width="25" height="5" fill="#D9E5FD" />
<rect x="65" y="185" width="5" height="5" fill="#B5565B" />
<rect x="70" y="185" width="180" height="5" fill="#D9E5FD" />
<rect x="250" y="185" width="5" height="5" fill="#D8E0F8" />
<rect x="255" y="185" width="25" height="5" fill="#D9E5FD" />
<rect x="40" y="190" width="25" height="15" fill="#FFFFFF" />
<rect x="65" y="190" width="5" height="15" fill="#BD5B5B" />
<rect x="70" y="190" width="180" height="15" fill="#FFFFFF" />
<rect x="250" y="190" width="5" height="15" fill="#FBEBED" />
<rect x="255" y="190" width="25" height="15" fill="#FFFFFF" />
<rect x="40" y="205" width="25" height="5" fill="#D9E5FD" />
<rect x="65" y="205" width="5" height="5" fill="#B5565B" />
<rect x="70" y="205" width="180" height="5" fill="#D9E5FD" />
<rect x="250" y="205" width="5" height="5" fill="#D8E0F8" />
<rect x="255" y="205" width="25" height="5" fill="#D9E5FD" />
<rect x="40" y="210" width="25" height="15" fill="#FFFFFF" />
<rect x="65" y="210" width="5" height="15" fill="#BD5B5B" />
<rect x="70" y="210" width="180" height="15" fill="#FFFFFF" />
<rect x="250" y="210" width="5" height="15" fill="#FBEBED" />
<rect x="255" y="210" width="25" height="15" fill="#FFFFFF" />
<rect x="40" y="225" width="25" height="5" fill="#D9E5FD" />
<rect x="65" y="225" width="5" height="5" fill="#B5565B" />
<rect x="70" y="225" width="180" height="5" fill="#D9E5FD" />
<rect x="250" y="225" width="5" height="5" fill="#D8E0F8" />
<rect x="255" y="225" width="25" height="5" fill="#D9E5FD" />
<rect x="40" y="230" width="25" height="15" fill="#FFFFFF" />
<rect x="65" y="230" width="5" height="15" fill="#BD5B5B" />
<rect x="70" y="230" width="180" height="15" fill="#FFFFFF" />
<rect x="250" y="230" width="5" height="15" fill="#FBEBED" />
<rect x="255" y="230" width="25" height="15" fill="#FFFFFF" />
<rect x="40" y="245" width="25" height="5" fill="#D9E5FD" />
<rect x="65" y="245" width="5" height="5" fill="#B5565B" />
<rect x="70" y="245" width="180" height="5" fill="#D9E5FD" />
<rect x="250" y="245" width="5" height="5" fill="#D8E0F8" />
<rect x="255" y="245" width="25" height="5" fill="#D9E5FD" />
<rect x="40" y="250" width="25" height="15" fill="#FFFFFF" />
<rect x="65" y="250" width="5" height="15" fill="#BD5B5B" />
<rect x="70" y="250" width="180" height="15" fill="#FFFFFF" />
<rect x="250" y="250" width="5" height="15" fill="#FBEBED" />
<rect x="255" y="250" width="25" height="15" fill="#FFFFFF" />
<rect x="40" y="265" width="25" height="5" fill="#D9E5FD" />
<rect x="65" y="265" width="5" height="5" fill="#B5565B" />
<rect x="70" y="265" width="180" height="5" fill="#D9E5FD" />
<rect x="250" y="265" width="5" height="5" fill="#D8E0F8" />
<rect x="255" y="265" width="25" height="5" fill="#D9E5FD" />
<rect x="40" y="270" width="25" height="5" fill="#FFFFFF" />
<rect x="65" y="270" width="5" height="15" fill="#BD5B5B" />
<rect x="70" y="270" width="180" height="15" fill="#FFFFFF" />
<rect x="250" y="270" width="5" height="15" fill="#FBEBED" />
<rect x="255" y="270" width="25" height="15" fill="#FFFFFF" />
<rect x="40" y="275" width="10" height="10" fill="#FFFFFF" />
<rect x="60" y="275" width="5" height="10" fill="#FFFFFF" />
<rect x="40" y="285" width="25" height="5" fill="#D9E5FD" />
<rect x="65" y="285" width="5" height="5" fill="#B5565B" />
<rect x="70" y="285" width="180" height="5" fill="#D9E5FD" />
<rect x="250" y="285" width="5" height="5" fill="#D8E0F8" />
<rect x="255" y="285" width="25" height="5" fill="#D9E5FD" />
<rect x="40" y="290" width="25" height="10" fill="#FFFFFF" />
<rect x="65" y="290" width="5" height="10" fill="#BD5B5B" />
<rect x="70" y="290" width="180" height="10" fill="#FFFFFF" />
<rect x="250" y="290" width="5" height="10" fill="#FBEBED" />
<rect x="255" y="290" width="25" height="10" fill="#FFFFFF" />
</svg>