<?xml version="1.0" encoding="UTF-8" ?>
<svg version="1.1" width="704" height="704" xmlns="http://www.w3.org/2000/svg" shape-rendering="crispEdges">
<rect x="0" y="0" width="308" height="22" fill="#595652" />
<rect x="308" y="0" width="11" height="22" fill="#696A6A" />
<rect x="319" y="0" width="385" height="22" fill="#595652" />
<rect x="0" y="22" width="110" height="11" fill="#595652" />
<rect x="110" y="22" width="11" height="11" fill="#696A6A" />
<rect x="121" y="22" width="198" height="209" fill="#595652" />
<rect x="319" y="22" width="11" height="22" fill="#696A6A" />
<rect x="330" y="22" width="374" height="132" fill="#595652" />
<rect x="0" y="33" width="99" height="11" fill="#595652" />
<rect x="99" y="33" width="11" height="11" fill="#696A6A" />
<rect x="110" y="33" width="11" height="264" fill="#595652" />
<rect x="0" y="44" width="77" height="11" fill="#595652" />
<rect x="77" y="44" width="22" height="11" fill="#696A6A" />
<rect x="99" y="44" width="11" height="253" fill="#595652" />
<rect x="319" y="44" width="11" height="253" fill="#595652" />
<rect x="0" y="55" width="66" height="11" fill="#595652" />
<rect x="66" y="55" width="11" height="11" fill="#696A6A" />
<rect x="77" y="55" width="22" height="242" fill="#595652" />
<rect x="0" y="66" width="44" height="99" fill="#595652" />
<rect x="44" y="66" width="22" height="11" fill="#696A6A" />
<rect x="66" y="66" width="11" height="231" fill="#595652" />
<rect x="44" y="77" width="22" height="121" fill="#595652" />
<rect x="330" y="154" width="209" height="22" fill="#595652" />
<rect x="539" y="154" width="11" height="22" fill="#696A6A" />
<rect x="550" y="154" width="154" height="44" fill="#595652" />
<rect x="0" y="165" width="11" height="132" fill="#595652" />
<rect x="11" y="165" width="22" height="22" fill="#696A6A" />
<rect x="33" y="165" width="11" height="11" fill="#595652" />
<rect x="33" y="176" width="11" height="55" fill="#696A6A" />
<rect x="330" y="176" width="198" height="121" fill="#595652" />
<rect x="528" y="176" width="11" height="11" fill="#696A6A" />
<rect x="539" y="176" width="11" height="121" fill="#595652" />
<rect x="11" y="187" width="11" height="110" fill="#595652" />
<rect x="22" y="187" width="11" height="22" fill="#696A6A" />
<rect x="528" y="187" width="11" height="110" fill="#595652" />
<rect x="44" y="198" width="11" height="33" fill="#696A6A" />
<rect x="55" y="198" width="11" height="99" fill="#595652" />
<rect x="550" y="198" width="99" height="11" fill="#595652" />
<rect x="649" y="198" width="11" height="11" fill="#696A6A" />
<rect x="660" y="198" width="44" height="55" fill="#595652" />
<rect x="22" y="209" width="11" height="88" fill="#595652" />
<rect x="550" y="209" width="88" height="88" fill="#595652" />
<rect x="638" y="209" width="11" height="44" fill="#696A6A" />
<rect x="649" y="209" width="11" height="88" fill="#595652" />
<rect x="33" y="231" width="22" height="66" fill="#595652" />
<rect x="121" y="231" width="88" height="66" fill="#595652" />
<rect x="209" y="231" width="11" height="11" fill="#696A6A" />
<rect x="220" y="231" width="99" height="11" fill="#595652" />
<rect x="209" y="242" width="11" height="55" fill="#595652" />
<rect x="220" y="242" width="11" height="11" fill="#696A6A" />
<rect x="231" y="242" width="88" height="55" fill="#595652" />
<rect x="220" y="253" width="11" height="44" fill="#595652" />
<rect x="638" y="253" width="11" height="44" fill="#595652" />
<rect x="660" y="253" width="11" height="22" fill="#595652" />
<rect x="671" y="253" width="11" height="22" fill="#696A6A" />
<rect x="682" y="253" width="22" height="44" fill="#595652" />
<rect x="660" y="275" width="11" height="11" fill="#696A6A" />
<rect x="671" y="275" width="11" height="22" fill="#595652" />
<rect x="660" y="286" width="11" height="11" fill="#595652" />
<rect x="0" y="297" width="22" height="44" fill="#43426E" />
<rect x="22" y="297" width="22" height="44" fill="#F0DA57" />
<rect x="44" y="297" width="22" height="44" fill="#43426E" />
<rect x="66" y="297" width="22" height="44" fill="#F0DA57" />
<rect x="88" y="297" width="22" height="44" fill="#43426E" />
<rect x="110" y="297" width="22" height="44" fill="#F0DA57" />
<rect x="132" y="297" width="22" height="44" fill="#43426E" />
<rect x="154" y="297" width="22" height="44" fill="#F0DA57" />
<rect x="176" y="297" width="22" height="44" fill="#43426E" />
<rect x="198" y="297" width="22" height="44" fill="#F0DA57" />
<rect x="220" y="297" width="22" height="44" fill="#43426E" />
<rect x="242" y="297" width="22" height="44" fill="#F0DA57" />
<rect x="264" y="297" width="22" height="44" fill="#43426E" />
<rect x="286" y="297" width="22" height="44" fill="#F0DA57" />
<rect x="308" y="297" width="22" height="44" fill="#43426E" />
<rect x="330" y="297" width="22" height="44" fill="#F0DA57" />
<rect x="352" y="297" width="22" height="44" fill="#43426E" />
<rect x="374" y="297" width="22" height="44" fill="#F0DA57" />
<rect x="396" y="297" width="22" height="44" fill="#43426E" />
<rect x="418" y="297" width="22" height="44" fill="#F0DA57" />
<rect x="440" y="297" width="22" height="44" fill="#43426E" />
<rect x="462" y="297" width="22" height="44" fill="#F0DA57" />
<rect x="484" y="297" width="22" height="44" fill="#43426E" />
<rect x="506" y="297" width="22" height="44" fill="#F0DA57" />
<rect x="528" y="297" width="22" height="44" fill="#43426E" />
<rect x="550" y="297" width="22" height="44" fill="#F0DA57" />
<rect x="572" y="297" width="22" height="44" fill="#43426E" />
<rect x="594" y="297" width="22" height="44" fill="#F0DA57" />
<rect x="616" y="297" width="22" height="44" fill="#43426E" />
<rect x="638" y="297" width="22" height="44" fill="#F0DA57" />
<rect x="660" y="297" width="22" height="44" fill="#43426E" />
<rect x="682" y="297" width="22" height="44" fill="#F0DA57" />
<rect x="0" y="341" width="704" height="22" fill="#222034" />
<rect x="0" y="363" width="176" height="165" fill="#676461" />
<rect x="176" y="363" width="77" height="110" fill="#595652" />
<rect x="253" y="363" width="198" height="110" fill="#3A3937" />
<rect x="451" y="363" width="77" height="110" fill="#595652" />
<rect x="528" y="363" width="176" height="165" fill="#676461" />
<rect x="176" y="473" width="55" height="11" fill="#595652" />
<rect x="231" y="473" width="242" height="55" fill="#71787B" />
<rect x="473" y="473" width="55" height="11" fill="#595652" />
<rect x="176" y="484" width="44" height="11" fill="#595652" />
<rect x="220" y="484" width="11" height="44" fill="#71787B" />
<rect x="473" y="484" width="11" height="44" fill="#71787B" />
<rect x="484" y="484" width="44" height="11" fill="#595652" />
<rect x="176" y="495" width="33" height="11" fill="#595652" />
<rect x="209" y="495" width="11" height="33" fill="#71787B" />
<rect x="484" y="495" width="11" height="33" fill="#71787B" />
<rect x="495" y="495" width="33" height="11" fill="#595652" />
<rect x="176" y="506" width="22" height="11" fill="#595652" />
<rect x="198" y="506" width="11" height="22" fill="#71787B" />
<rect x="495" y="506" width="11" height="22" fill="#71787B" />
<rect x="506" y="506" width="22" height="11" fill="#595652" />
<rect x="176" y="517" width="11" height="11" fill="#595652" />
<rect x="187" y="517" width="11" height="11" fill="#71787B" />
<rect x="506" y="517" width="11" height="11" fill="#71787B" />
<rect x="517" y="517" width="11" height="11" fill="#595652" />
<rect x="0" y="528" width="165" height="11" fill="#676461" />
<rect x="165" y="528" width="374" height="176" fill="#899398" />
<rect x="539" y="528" width="165" height="11" fill="#676461" />
<rect x="0" y="539" width="154" height="11" fill="#676461" />
<rect x="154" y="539" width="11" height="165" fill="#899398" />
<rect x="539" y="539" width="11" height="165" fill="#899398" />
<rect x="550" y="539" width="154" height="11" fill="#676461" />
<rect x="0" y="550" width="143" height="11" fill="#676461" />
<rect x="143" y="550" width="11" height="154" fill="#899398" />
<rect x="550" y="550" width="11" height="154" fill="#899398" />
<rect x="561" y="550" width="143" height="11" fill="#676461" />
<rect x="0" y="561" width="132" height="11" fill="#676461" />
<rect x="132" y="561" width="11" height="143" fill="#899398" />
<rect x="561" y="561" width="11" height="143" fill="#899398" />
<rect x="572" y="561" width="132" height="11" fill="#676461" />
<rect x="0" y="572" width="121" height="11" fill="#676461" />
<rect x="121" y="572" width="11" height="132" fill="#899398" />
<rect x="572" y="572" width="11" height="132" fill="#899398" />
<rect x="583" y="572" width="121" height="11" fill="#676461" />
<rect x="0" y="583" width="110" height="11" fill="#676461" />
<rect x="110" y="583" width="11" height="121" fill="#899398" />
<rect x="583" y="583" width="11" height="121" fill="#899398" />
<rect x="594" y="583" width="110" height="11" fill="#676461" />
<rect x="0" y="594" width="99" height="11" fill="#676461" />
<rect x="99" y="594" width="11" height="110" fill="#899398" />
<rect x="594" y="594" width="11" height="110" fill="#899398" />
<rect x="605" y="594" width="99" height="11" fill="#676461" />
<rect x="0" y="605" width="88" height="11" fill="#676461" />
<rect x="88" y="605" width="11" height="99" fill="#899398" />
<rect x="605" y="605" width="11" height="99" fill="#899398" />
<rect x="616" y="605" width="88" height="11" fill="#676461" />
<rect x="0" y="616" width="77" height="11" fill="#676461" />
<rect x="77" y="616" width="11" height="88" fill="#899398" />
<rect x="616" y="616" width="11" height="88" fill="#899398" />
<rect x="627" y="616" width="77" height="11" fill="#676461" />
<rect x="0" y="627" width="66" height="11" fill="#676461" />
<rect x="66" y="627" width="11" height="77" fill="#899398" />
<rect x="627" y="627" width="11" height="77" fill="#899398" />
<rect x="638" y="627" width="66" height="11" fill="#676461" />
<rect x="0" y="638" width="55" height="11" fill="#676461" />
<rect x="55" y="638" width="11" height="66" fill="#899398" />
<rect x="638" y="638" width="11" height="66" fill="#899398" />
<rect x="649" y="638" width="55" height="11" fill="#676461" />
<rect x="0" y="649" width="44" height="11" fill="#676461" />
<rect x="44" y="649" width="11" height="55" fill="#899398" />
<rect x="649" y="649" width="11" height="55" fill="#899398" />
<rect x="660" y="649" width="44" height="11" fill="#676461" />
<rect x="0" y="660" width="33" height="11" fill="#676461" />
<rect x="33" y="660" width="11" height="44" fill="#899398" />
<rect x="660" y="660" width="11" height="44" fill="#899398" />
<rect x="671" y="660" width="33" height="11" fill="#676461" />
<rect x="0" y="671" width="22" height="11" fill="#676461" />
<rect x="22" y="671" width="11" height="33" fill="#899398" />
<rect x="671" y="671" width="11" height="33" fill="#899398" />
<rect x="682" y="671" width="22" height="11" fill="#676461" />
<rect x="0" y="682" width="11" height="11" fill="#676461" />
<rect x="11" y="682" width="11" height="22" fill="#899398" />
<rect x="682" y="682" width="11" height="22" fill="#899398" />
<rect x="693" y="682" width="11" height="11" fill="#676461" />
<rect x="0" y="693" width="11" height="11" fill="#899398" />
<rect x="693" y="693" width="11" height="11" fill="#899398" />
</svg>