<?xml version="1.0" encoding="UTF-8" ?>
<svg version="1.1" width="704" height="704" xmlns="http://www.w3.org/2000/svg" shape-rendering="crispEdges">
<rect x="0" y="0" width="704" height="11" fill="#595652" />
<rect x="0" y="11" width="88" height="11" fill="#595652" />
<rect x="88" y="11" width="11" height="11" fill="#696A6A" />
<rect x="99" y="11" width="605" height="88" fill="#595652" />
<rect x="0" y="22" width="77" height="33" fill="#595652" />
<rect x="77" y="22" width="11" height="33" fill="#696A6A" />
<rect x="88" y="22" width="11" height="385" fill="#595652" />
<rect x="0" y="55" width="66" height="22" fill="#595652" />
<rect x="66" y="55" width="11" height="22" fill="#696A6A" />
<rect x="77" y="55" width="11" height="352" fill="#595652" />
<rect x="0" y="77" width="55" height="11" fill="#595652" />
<rect x="55" y="77" width="11" height="11" fill="#696A6A" />
<rect x="66" y="77" width="11" height="341" fill="#595652" />
<rect x="0" y="88" width="44" height="440" fill="#595652" />
<rect x="44" y="88" width="11" height="11" fill="#696A6A" />
<rect x="55" y="88" width="11" height="341" fill="#595652" />
<rect x="44" y="99" width="11" height="330" fill="#595652" />
<rect x="99" y="99" width="528" height="143" fill="#595652" />
<rect x="627" y="99" width="11" height="22" fill="#696A6A" />
<rect x="638" y="99" width="66" height="462" fill="#595652" />
<rect x="627" y="121" width="11" height="539" fill="#595652" />
<rect x="99" y="242" width="11" height="154" fill="#595652" />
<rect x="110" y="242" width="11" height="11" fill="#696A6A" />
<rect x="121" y="242" width="506" height="110" fill="#595652" />
<rect x="110" y="253" width="11" height="132" fill="#595652" />
<rect x="121" y="352" width="187" height="242" fill="#595652" />
<rect x="308" y="352" width="11" height="33" fill="#696A6A" />
<rect x="319" y="352" width="308" height="33" fill="#595652" />
<rect x="110" y="385" width="11" height="11" fill="#696A6A" />
<rect x="308" y="385" width="11" height="275" fill="#595652" />
<rect x="319" y="385" width="11" height="22" fill="#696A6A" />
<rect x="330" y="385" width="297" height="132" fill="#595652" />
<rect x="99" y="396" width="11" height="11" fill="#696A6A" />
<rect x="110" y="396" width="11" height="264" fill="#595652" />
<rect x="77" y="407" width="22" height="11" fill="#696A6A" />
<rect x="99" y="407" width="11" height="253" fill="#595652" />
<rect x="319" y="407" width="11" height="253" fill="#595652" />
<rect x="66" y="418" width="11" height="11" fill="#696A6A" />
<rect x="77" y="418" width="22" height="242" fill="#595652" />
<rect x="44" y="429" width="22" height="11" fill="#696A6A" />
<rect x="66" y="429" width="11" height="231" fill="#595652" />
<rect x="44" y="440" width="22" height="121" fill="#595652" />
<rect x="330" y="517" width="209" height="22" fill="#595652" />
<rect x="539" y="517" width="11" height="22" fill="#696A6A" />
<rect x="550" y="517" width="77" height="143" fill="#595652" />
<rect x="0" y="528" width="11" height="132" fill="#595652" />
<rect x="11" y="528" width="22" height="22" fill="#696A6A" />
<rect x="33" y="528" width="11" height="11" fill="#595652" />
<rect x="33" y="539" width="11" height="55" fill="#696A6A" />
<rect x="330" y="539" width="198" height="121" fill="#595652" />
<rect x="528" y="539" width="11" height="11" fill="#696A6A" />
<rect x="539" y="539" width="11" height="121" fill="#595652" />
<rect x="11" y="550" width="11" height="110" fill="#595652" />
<rect x="22" y="550" width="11" height="22" fill="#696A6A" />
<rect x="528" y="550" width="11" height="110" fill="#595652" />
<rect x="44" y="561" width="11" height="33" fill="#696A6A" />
<rect x="55" y="561" width="11" height="99" fill="#595652" />
<rect x="638" y="561" width="11" height="11" fill="#595652" />
<rect x="649" y="561" width="11" height="11" fill="#696A6A" />
<rect x="660" y="561" width="44" height="55" fill="#595652" />
<rect x="22" y="572" width="11" height="88" fill="#595652" />
<rect x="638" y="572" width="11" height="44" fill="#696A6A" />
<rect x="649" y="572" width="11" height="88" fill="#595652" />
<rect x="33" y="594" width="22" height="66" fill="#595652" />
<rect x="121" y="594" width="88" height="66" fill="#595652" />
<rect x="209" y="594" width="11" height="11" fill="#696A6A" />
<rect x="220" y="594" width="88" height="11" fill="#595652" />
<rect x="209" y="605" width="11" height="55" fill="#595652" />
<rect x="220" y="605" width="11" height="11" fill="#696A6A" />
<rect x="231" y="605" width="77" height="55" fill="#595652" />
<rect x="220" y="616" width="11" height="44" fill="#595652" />
<rect x="638" y="616" width="11" height="44" fill="#595652" />
<rect x="660" y="616" width="11" height="22" fill="#595652" />
<rect x="671" y="616" width="11" height="22" fill="#696A6A" />
<rect x="682" y="616" width="22" height="44" fill="#595652" />
<rect x="660" y="638" width="11" height="11" fill="#696A6A" />
<rect x="671" y="638" width="11" height="22" fill="#595652" />
<rect x="660" y="649" width="11" height="11" fill="#595652" />
<rect x="0" y="660" width="22" height="44" fill="#43426E" />
<rect x="22" y="660" width="22" height="44" fill="#F0DA57" />
<rect x="44" y="660" width="22" height="44" fill="#43426E" />
<rect x="66" y="660" width="22" height="44" fill="#F0DA57" />
<rect x="88" y="660" width="22" height="44" fill="#43426E" />
<rect x="110" y="660" width="22" height="44" fill="#F0DA57" />
<rect x="132" y="660" width="22" height="44" fill="#43426E" />
<rect x="154" y="660" width="22" height="44" fill="#F0DA57" />
<rect x="176" y="660" width="22" height="44" fill="#43426E" />
<rect x="198" y="660" width="22" height="44" fill="#F0DA57" />
<rect x="220" y="660" width="22" height="44" fill="#43426E" />
<rect x="242" y="660" width="22" height="44" fill="#F0DA57" />
<rect x="264" y="660" width="22" height="44" fill="#43426E" />
<rect x="286" y="660" width="22" height="44" fill="#F0DA57" />
<rect x="308" y="660" width="22" height="44" fill="#43426E" />
<rect x="330" y="660" width="22" height="44" fill="#F0DA57" />
<rect x="352" y="660" width="22" height="44" fill="#43426E" />
<rect x="374" y="660" width="22" height="44" fill="#F0DA57" />
<rect x="396" y="660" width="22" height="44" fill="#43426E" />
<rect x="418" y="660" width="22" height="44" fill="#F0DA57" />
<rect x="440" y="660" width="22" height="44" fill="#43426E" />
<rect x="462" y="660" width="22" height="44" fill="#F0DA57" />
<rect x="484" y="660" width="22" height="44" fill="#43426E" />
<rect x="506" y="660" width="22" height="44" fill="#F0DA57" />
<rect x="528" y="660" width="22" height="44" fill="#43426E" />
<rect x="550" y="660" width="22" height="44" fill="#F0DA57" />
<rect x="572" y="660" width="22" height="44" fill="#43426E" />
<rect x="594" y="660" width="22" height="44" fill="#F0DA57" />
<rect x="616" y="660" width="22" height="44" fill="#43426E" />
<rect x="638" y="660" width="22" height="44" fill="#F0DA57" />
<rect x="660" y="660" width="22" height="44" fill="#43426E" />
<rect x="682" y="660" width="22" height="44" fill="#F0DA57" />
</svg>