<?xml version="1.0" encoding="UTF-8" ?>
<svg version="1.1" width="704" height="704" xmlns="http://www.w3.org/2000/svg" shape-rendering="crispEdges">
<rect x="0" y="0" width="704" height="11" fill="#595652" />
<rect x="0" y="11" width="22" height="671" fill="#676461" />
<rect x="22" y="11" width="660" height="11" fill="#595652" />
<rect x="682" y="11" width="22" height="671" fill="#676461" />
<rect x="22" y="22" width="22" height="638" fill="#676461" />
<rect x="44" y="22" width="616" height="11" fill="#595652" />
<rect x="660" y="22" width="22" height="638" fill="#676461" />
<rect x="44" y="33" width="33" height="594" fill="#676461" />
<rect x="77" y="33" width="550" height="11" fill="#595652" />
<rect x="627" y="33" width="33" height="594" fill="#676461" />
<rect x="77" y="44" width="22" height="561" fill="#676461" />
<rect x="99" y="44" width="506" height="11" fill="#595652" />
<rect x="605" y="44" width="22" height="561" fill="#676461" />
<rect x="99" y="55" width="33" height="517" fill="#676461" />
<rect x="132" y="55" width="440" height="11" fill="#595652" />
<rect x="572" y="55" width="33" height="517" fill="#676461" />
<rect x="132" y="66" width="22" height="484" fill="#676461" />
<rect x="154" y="66" width="396" height="11" fill="#595652" />
<rect x="550" y="66" width="22" height="484" fill="#676461" />
<rect x="154" y="77" width="22" height="451" fill="#676461" />
<rect x="176" y="77" width="352" height="11" fill="#3A3937" />
<rect x="528" y="77" width="22" height="451" fill="#676461" />
<rect x="176" y="88" width="11" height="440" fill="#595652" />
<rect x="187" y="88" width="330" height="11" fill="#3A3937" />
<rect x="517" y="88" width="11" height="440" fill="#595652" />
<rect x="187" y="99" width="11" height="418" fill="#595652" />
<rect x="198" y="99" width="308" height="11" fill="#3A3937" />
<rect x="506" y="99" width="11" height="418" fill="#595652" />
<rect x="198" y="110" width="11" height="396" fill="#595652" />
<rect x="209" y="110" width="286" height="11" fill="#3A3937" />
<rect x="495" y="110" width="11" height="396" fill="#595652" />
<rect x="209" y="121" width="11" height="374" fill="#595652" />
<rect x="220" y="121" width="264" height="11" fill="#3A3937" />
<rect x="484" y="121" width="11" height="374" fill="#595652" />
<rect x="220" y="132" width="11" height="352" fill="#595652" />
<rect x="231" y="132" width="242" height="11" fill="#3A3937" />
<rect x="473" y="132" width="11" height="352" fill="#595652" />
<rect x="231" y="143" width="11" height="330" fill="#595652" />
<rect x="242" y="143" width="220" height="11" fill="#3A3937" />
<rect x="462" y="143" width="11" height="330" fill="#595652" />
<rect x="242" y="154" width="11" height="319" fill="#595652" />
<rect x="253" y="154" width="198" height="319" fill="#3A3937" />
<rect x="451" y="154" width="11" height="319" fill="#595652" />
<rect x="231" y="473" width="242" height="55" fill="#71787B" />
<rect x="220" y="484" width="11" height="44" fill="#71787B" />
<rect x="473" y="484" width="11" height="44" fill="#71787B" />
<rect x="209" y="495" width="11" height="33" fill="#71787B" />
<rect x="484" y="495" width="11" height="33" fill="#71787B" />
<rect x="198" y="506" width="11" height="22" fill="#71787B" />
<rect x="495" y="506" width="11" height="22" fill="#71787B" />
<rect x="187" y="517" width="11" height="11" fill="#71787B" />
<rect x="506" y="517" width="11" height="11" fill="#71787B" />
<rect x="154" y="528" width="11" height="11" fill="#676461" />
<rect x="165" y="528" width="374" height="176" fill="#899398" />
<rect x="539" y="528" width="11" height="11" fill="#676461" />
<rect x="154" y="539" width="11" height="165" fill="#899398" />
<rect x="539" y="539" width="11" height="165" fill="#899398" />
<rect x="132" y="550" width="11" height="11" fill="#676461" />
<rect x="143" y="550" width="11" height="154" fill="#899398" />
<rect x="550" y="550" width="11" height="154" fill="#899398" />
<rect x="561" y="550" width="11" height="11" fill="#676461" />
<rect x="132" y="561" width="11" height="143" fill="#899398" />
<rect x="561" y="561" width="11" height="143" fill="#899398" />
<rect x="99" y="572" width="22" height="11" fill="#676461" />
<rect x="121" y="572" width="11" height="132" fill="#899398" />
<rect x="572" y="572" width="11" height="132" fill="#899398" />
<rect x="583" y="572" width="22" height="11" fill="#676461" />
<rect x="99" y="583" width="11" height="11" fill="#676461" />
<rect x="110" y="583" width="11" height="121" fill="#899398" />
<rect x="583" y="583" width="11" height="121" fill="#899398" />
<rect x="594" y="583" width="11" height="11" fill="#676461" />
<rect x="99" y="594" width="11" height="110" fill="#899398" />
<rect x="594" y="594" width="11" height="110" fill="#899398" />
<rect x="77" y="605" width="11" height="11" fill="#676461" />
<rect x="88" y="605" width="11" height="99" fill="#899398" />
<rect x="605" y="605" width="11" height="99" fill="#899398" />
<rect x="616" y="605" width="11" height="11" fill="#676461" />
<rect x="77" y="616" width="11" height="88" fill="#899398" />
<rect x="616" y="616" width="11" height="88" fill="#899398" />
<rect x="44" y="627" width="22" height="11" fill="#676461" />
<rect x="66" y="627" width="11" height="77" fill="#899398" />
<rect x="627" y="627" width="11" height="77" fill="#899398" />
<rect x="638" y="627" width="22" height="11" fill="#676461" />
<rect x="44" y="638" width="11" height="11" fill="#676461" />
<rect x="55" y="638" width="11" height="66" fill="#899398" />
<rect x="638" y="638" width="11" height="66" fill="#899398" />
<rect x="649" y="638" width="11" height="11" fill="#676461" />
<rect x="44" y="649" width="11" height="55" fill="#899398" />
<rect x="649" y="649" width="11" height="55" fill="#899398" />
<rect x="22" y="660" width="11" height="11" fill="#676461" />
<rect x="33" y="660" width="11" height="44" fill="#899398" />
<rect x="660" y="660" width="11" height="44" fill="#899398" />
<rect x="671" y="660" width="11" height="11" fill="#676461" />
<rect x="22" y="671" width="11" height="33" fill="#899398" />
<rect x="671" y="671" width="11" height="33" fill="#899398" />
<rect x="0" y="682" width="11" height="11" fill="#676461" />
<rect x="11" y="682" width="11" height="22" fill="#899398" />
<rect x="682" y="682" width="11" height="22" fill="#899398" />
<rect x="693" y="682" width="11" height="11" fill="#676461" />
<rect x="0" y="693" width="11" height="11" fill="#899398" />
<rect x="693" y="693" width="11" height="11" fill="#899398" />
</svg>