<?xml version="1.0" encoding="UTF-8" ?>
<svg version="1.1" width="704" height="704" xmlns="http://www.w3.org/2000/svg" shape-rendering="crispEdges">
<rect x="0" y="0" width="22" height="22" fill="#43426E" />
<rect x="22" y="0" width="33" height="11" fill="#F0DA57" />
<rect x="55" y="0" width="11" height="33" fill="#43426E" />
<rect x="66" y="0" width="638" height="11" fill="#E4EBEF" />
<rect x="22" y="11" width="11" height="55" fill="#43426E" />
<rect x="33" y="11" width="11" height="11" fill="#F0DA57" />
<rect x="44" y="11" width="11" height="55" fill="#43426E" />
<rect x="66" y="11" width="11" height="11" fill="#43426E" />
<rect x="77" y="11" width="627" height="11" fill="#E4EBEF" />
<rect x="0" y="22" width="11" height="33" fill="#F0DA57" />
<rect x="11" y="22" width="11" height="11" fill="#43426E" />
<rect x="33" y="22" width="11" height="33" fill="#43426E" />
<rect x="66" y="22" width="22" height="22" fill="#F0DA57" />
<rect x="88" y="22" width="616" height="11" fill="#E4EBEF" />
<rect x="11" y="33" width="11" height="11" fill="#F0DA57" />
<rect x="55" y="33" width="11" height="11" fill="#F0DA57" />
<rect x="88" y="33" width="11" height="33" fill="#43426E" />
<rect x="99" y="33" width="44" height="11" fill="#E4EBEF" />
<rect x="143" y="33" width="528" height="11" fill="#ADB7BD" />
<rect x="671" y="33" width="33" height="583" fill="#E4EBEF" />
<rect x="11" y="44" width="11" height="33" fill="#43426E" />
<rect x="55" y="44" width="11" height="55" fill="#43426E" />
<rect x="66" y="44" width="11" height="11" fill="#F0DA57" />
<rect x="77" y="44" width="11" height="55" fill="#43426E" />
<rect x="99" y="44" width="11" height="11" fill="#43426E" />
<rect x="110" y="44" width="44" height="11" fill="#E4EBEF" />
<rect x="154" y="44" width="517" height="11" fill="#ADB7BD" />
<rect x="0" y="55" width="11" height="11" fill="#43426E" />
<rect x="33" y="55" width="11" height="33" fill="#F0DA57" />
<rect x="66" y="55" width="11" height="33" fill="#43426E" />
<rect x="99" y="55" width="22" height="22" fill="#F0DA57" />
<rect x="121" y="55" width="44" height="11" fill="#E4EBEF" />
<rect x="165" y="55" width="506" height="11" fill="#ADB7BD" />
<rect x="0" y="66" width="11" height="638" fill="#E4EBEF" />
<rect x="22" y="66" width="11" height="22" fill="#F0DA57" />
<rect x="44" y="66" width="11" height="11" fill="#F0DA57" />
<rect x="88" y="66" width="11" height="11" fill="#F0DA57" />
<rect x="121" y="66" width="11" height="33" fill="#43426E" />
<rect x="132" y="66" width="44" height="11" fill="#E4EBEF" />
<rect x="176" y="66" width="484" height="11" fill="#C4D2DA" />
<rect x="660" y="66" width="11" height="495" fill="#ADB7BD" />
<rect x="11" y="77" width="11" height="627" fill="#E4EBEF" />
<rect x="44" y="77" width="11" height="33" fill="#43426E" />
<rect x="88" y="77" width="11" height="55" fill="#43426E" />
<rect x="99" y="77" width="11" height="11" fill="#F0DA57" />
<rect x="110" y="77" width="11" height="55" fill="#43426E" />
<rect x="132" y="77" width="11" height="11" fill="#43426E" />
<rect x="143" y="77" width="44" height="11" fill="#E4EBEF" />
<rect x="187" y="77" width="473" height="11" fill="#C4D2DA" />
<rect x="22" y="88" width="11" height="616" fill="#E4EBEF" />
<rect x="33" y="88" width="11" height="11" fill="#43426E" />
<rect x="66" y="88" width="11" height="33" fill="#F0DA57" />
<rect x="99" y="88" width="11" height="33" fill="#43426E" />
<rect x="132" y="88" width="22" height="22" fill="#F0DA57" />
<rect x="154" y="88" width="44" height="11" fill="#E4EBEF" />
<rect x="198" y="88" width="462" height="11" fill="#C4D2DA" />
<rect x="33" y="99" width="11" height="44" fill="#E4EBEF" />
<rect x="55" y="99" width="11" height="22" fill="#F0DA57" />
<rect x="77" y="99" width="11" height="11" fill="#F0DA57" />
<rect x="121" y="99" width="11" height="11" fill="#F0DA57" />
<rect x="154" y="99" width="11" height="33" fill="#43426E" />
<rect x="165" y="99" width="44" height="11" fill="#E4EBEF" />
<rect x="209" y="99" width="451" height="11" fill="#C4D2DA" />
<rect x="44" y="110" width="11" height="44" fill="#E4EBEF" />
<rect x="77" y="110" width="11" height="33" fill="#43426E" />
<rect x="121" y="110" width="11" height="55" fill="#43426E" />
<rect x="132" y="110" width="11" height="11" fill="#F0DA57" />
<rect x="143" y="110" width="11" height="55" fill="#43426E" />
<rect x="165" y="110" width="11" height="11" fill="#43426E" />
<rect x="176" y="110" width="44" height="11" fill="#E4EBEF" />
<rect x="220" y="110" width="440" height="11" fill="#C4D2DA" />
<rect x="55" y="121" width="11" height="44" fill="#E4EBEF" />
<rect x="66" y="121" width="11" height="11" fill="#43426E" />
<rect x="99" y="121" width="11" height="33" fill="#F0DA57" />
<rect x="132" y="121" width="11" height="33" fill="#43426E" />
<rect x="165" y="121" width="22" height="22" fill="#F0DA57" />
<rect x="187" y="121" width="44" height="11" fill="#E4EBEF" />
<rect x="231" y="121" width="429" height="11" fill="#C4D2DA" />
<rect x="66" y="132" width="11" height="44" fill="#E4EBEF" />
<rect x="88" y="132" width="11" height="22" fill="#F0DA57" />
<rect x="110" y="132" width="11" height="11" fill="#F0DA57" />
<rect x="154" y="132" width="11" height="11" fill="#F0DA57" />
<rect x="187" y="132" width="11" height="33" fill="#43426E" />
<rect x="198" y="132" width="44" height="11" fill="#E4EBEF" />
<rect x="242" y="132" width="418" height="11" fill="#C4D2DA" />
<rect x="33" y="143" width="11" height="33" fill="#ADB7BD" />
<rect x="77" y="143" width="11" height="44" fill="#E4EBEF" />
<rect x="110" y="143" width="11" height="33" fill="#43426E" />
<rect x="154" y="143" width="11" height="55" fill="#43426E" />
<rect x="165" y="143" width="11" height="11" fill="#F0DA57" />
<rect x="176" y="143" width="11" height="55" fill="#43426E" />
<rect x="198" y="143" width="11" height="11" fill="#43426E" />
<rect x="209" y="143" width="44" height="11" fill="#E4EBEF" />
<rect x="253" y="143" width="407" height="11" fill="#C4D2DA" />
<rect x="44" y="154" width="11" height="33" fill="#ADB7BD" />
<rect x="88" y="154" width="11" height="44" fill="#E4EBEF" />
<rect x="99" y="154" width="11" height="11" fill="#43426E" />
<rect x="132" y="154" width="11" height="33" fill="#F0DA57" />
<rect x="165" y="154" width="11" height="33" fill="#43426E" />
<rect x="198" y="154" width="22" height="22" fill="#F0DA57" />
<rect x="220" y="154" width="44" height="11" fill="#E4EBEF" />
<rect x="264" y="154" width="396" height="11" fill="#C4D2DA" />
<rect x="55" y="165" width="11" height="33" fill="#ADB7BD" />
<rect x="99" y="165" width="11" height="44" fill="#E4EBEF" />
<rect x="121" y="165" width="11" height="22" fill="#F0DA57" />
<rect x="143" y="165" width="11" height="11" fill="#F0DA57" />
<rect x="187" y="165" width="11" height="11" fill="#F0DA57" />
<rect x="220" y="165" width="11" height="33" fill="#43426E" />
<rect x="231" y="165" width="44" height="11" fill="#E4EBEF" />
<rect x="275" y="165" width="385" height="11" fill="#C4D2DA" />
<rect x="33" y="176" width="11" height="495" fill="#C4D2DA" />
<rect x="66" y="176" width="11" height="33" fill="#ADB7BD" />
<rect x="110" y="176" width="11" height="44" fill="#E4EBEF" />
<rect x="143" y="176" width="11" height="33" fill="#43426E" />
<rect x="187" y="176" width="11" height="55" fill="#43426E" />
<rect x="198" y="176" width="11" height="11" fill="#F0DA57" />
<rect x="209" y="176" width="11" height="55" fill="#43426E" />
<rect x="231" y="176" width="11" height="11" fill="#43426E" />
<rect x="242" y="176" width="44" height="11" fill="#E4EBEF" />
<rect x="286" y="176" width="374" height="11" fill="#C4D2DA" />
<rect x="44" y="187" width="11" height="484" fill="#C4D2DA" />
<rect x="77" y="187" width="11" height="33" fill="#ADB7BD" />
<rect x="121" y="187" width="11" height="44" fill="#E4EBEF" />
<rect x="132" y="187" width="11" height="11" fill="#43426E" />
<rect x="165" y="187" width="11" height="33" fill="#F0DA57" />
<rect x="198" y="187" width="11" height="33" fill="#43426E" />
<rect x="231" y="187" width="22" height="22" fill="#F0DA57" />
<rect x="253" y="187" width="44" height="11" fill="#E4EBEF" />
<rect x="297" y="187" width="363" height="11" fill="#C4D2DA" />
<rect x="55" y="198" width="11" height="473" fill="#C4D2DA" />
<rect x="88" y="198" width="11" height="33" fill="#ADB7BD" />
<rect x="132" y="198" width="11" height="44" fill="#E4EBEF" />
<rect x="154" y="198" width="11" height="22" fill="#F0DA57" />
<rect x="176" y="198" width="11" height="11" fill="#F0DA57" />
<rect x="220" y="198" width="11" height="11" fill="#F0DA57" />
<rect x="253" y="198" width="11" height="33" fill="#43426E" />
<rect x="264" y="198" width="44" height="11" fill="#E4EBEF" />
<rect x="308" y="198" width="352" height="11" fill="#C4D2DA" />
<rect x="66" y="209" width="11" height="462" fill="#C4D2DA" />
<rect x="99" y="209" width="11" height="33" fill="#ADB7BD" />
<rect x="143" y="209" width="11" height="44" fill="#E4EBEF" />
<rect x="176" y="209" width="11" height="33" fill="#43426E" />
<rect x="220" y="209" width="11" height="55" fill="#43426E" />
<rect x="231" y="209" width="11" height="11" fill="#F0DA57" />
<rect x="242" y="209" width="11" height="55" fill="#43426E" />
<rect x="264" y="209" width="11" height="11" fill="#43426E" />
<rect x="275" y="209" width="44" height="11" fill="#E4EBEF" />
<rect x="319" y="209" width="341" height="11" fill="#C4D2DA" />
<rect x="77" y="220" width="11" height="451" fill="#C4D2DA" />
<rect x="110" y="220" width="11" height="33" fill="#ADB7BD" />
<rect x="154" y="220" width="11" height="44" fill="#E4EBEF" />
<rect x="165" y="220" width="11" height="11" fill="#43426E" />
<rect x="198" y="220" width="11" height="33" fill="#F0DA57" />
<rect x="231" y="220" width="11" height="33" fill="#43426E" />
<rect x="264" y="220" width="22" height="22" fill="#F0DA57" />
<rect x="286" y="220" width="44" height="11" fill="#E4EBEF" />
<rect x="330" y="220" width="330" height="11" fill="#C4D2DA" />
<rect x="88" y="231" width="11" height="440" fill="#C4D2DA" />
<rect x="121" y="231" width="11" height="33" fill="#ADB7BD" />
<rect x="165" y="231" width="11" height="44" fill="#E4EBEF" />
<rect x="187" y="231" width="11" height="22" fill="#F0DA57" />
<rect x="209" y="231" width="11" height="11" fill="#F0DA57" />
<rect x="253" y="231" width="11" height="11" fill="#F0DA57" />
<rect x="286" y="231" width="11" height="33" fill="#43426E" />
<rect x="297" y="231" width="44" height="11" fill="#E4EBEF" />
<rect x="341" y="231" width="319" height="11" fill="#C4D2DA" />
<rect x="99" y="242" width="11" height="429" fill="#C4D2DA" />
<rect x="132" y="242" width="11" height="33" fill="#ADB7BD" />
<rect x="176" y="242" width="11" height="44" fill="#E4EBEF" />
<rect x="209" y="242" width="11" height="33" fill="#43426E" />
<rect x="253" y="242" width="11" height="55" fill="#43426E" />
<rect x="264" y="242" width="11" height="11" fill="#F0DA57" />
<rect x="275" y="242" width="11" height="55" fill="#43426E" />
<rect x="297" y="242" width="11" height="11" fill="#43426E" />
<rect x="308" y="242" width="44" height="11" fill="#E4EBEF" />
<rect x="352" y="242" width="308" height="11" fill="#C4D2DA" />
<rect x="110" y="253" width="11" height="418" fill="#C4D2DA" />
<rect x="143" y="253" width="11" height="33" fill="#ADB7BD" />
<rect x="187" y="253" width="11" height="44" fill="#E4EBEF" />
<rect x="198" y="253" width="11" height="11" fill="#43426E" />
<rect x="231" y="253" width="11" height="33" fill="#F0DA57" />
<rect x="264" y="253" width="11" height="33" fill="#43426E" />
<rect x="297" y="253" width="22" height="22" fill="#F0DA57" />
<rect x="319" y="253" width="44" height="11" fill="#E4EBEF" />
<rect x="363" y="253" width="297" height="11" fill="#C4D2DA" />
<rect x="121" y="264" width="11" height="407" fill="#C4D2DA" />
<rect x="154" y="264" width="11" height="33" fill="#ADB7BD" />
<rect x="198" y="264" width="11" height="44" fill="#E4EBEF" />
<rect x="220" y="264" width="11" height="22" fill="#F0DA57" />
<rect x="242" y="264" width="11" height="11" fill="#F0DA57" />
<rect x="286" y="264" width="11" height="11" fill="#F0DA57" />
<rect x="319" y="264" width="11" height="33" fill="#43426E" />
<rect x="330" y="264" width="44" height="11" fill="#E4EBEF" />
<rect x="374" y="264" width="286" height="11" fill="#C4D2DA" />
<rect x="132" y="275" width="11" height="396" fill="#C4D2DA" />
<rect x="165" y="275" width="11" height="33" fill="#ADB7BD" />
<rect x="209" y="275" width="11" height="44" fill="#E4EBEF" />
<rect x="242" y="275" width="11" height="33" fill="#43426E" />
<rect x="286" y="275" width="11" height="55" fill="#43426E" />
<rect x="297" y="275" width="11" height="11" fill="#F0DA57" />
<rect x="308" y="275" width="11" height="55" fill="#43426E" />
<rect x="330" y="275" width="11" height="11" fill="#43426E" />
<rect x="341" y="275" width="44" height="11" fill="#E4EBEF" />
<rect x="385" y="275" width="275" height="11" fill="#C4D2DA" />
<rect x="143" y="286" width="11" height="385" fill="#C4D2DA" />
<rect x="176" y="286" width="11" height="33" fill="#ADB7BD" />
<rect x="220" y="286" width="11" height="44" fill="#E4EBEF" />
<rect x="231" y="286" width="11" height="11" fill="#43426E" />
<rect x="264" y="286" width="11" height="33" fill="#F0DA57" />
<rect x="297" y="286" width="11" height="33" fill="#43426E" />
<rect x="330" y="286" width="22" height="22" fill="#F0DA57" />
<rect x="352" y="286" width="44" height="11" fill="#E4EBEF" />
<rect x="396" y="286" width="264" height="11" fill="#C4D2DA" />
<rect x="154" y="297" width="11" height="374" fill="#C4D2DA" />
<rect x="187" y="297" width="11" height="33" fill="#ADB7BD" />
<rect x="231" y="297" width="11" height="44" fill="#E4EBEF" />
<rect x="253" y="297" width="11" height="22" fill="#F0DA57" />
<rect x="275" y="297" width="11" height="11" fill="#F0DA57" />
<rect x="319" y="297" width="11" height="11" fill="#F0DA57" />
<rect x="352" y="297" width="11" height="33" fill="#43426E" />
<rect x="363" y="297" width="44" height="11" fill="#E4EBEF" />
<rect x="407" y="297" width="253" height="11" fill="#C4D2DA" />
<rect x="165" y="308" width="11" height="363" fill="#C4D2DA" />
<rect x="198" y="308" width="11" height="33" fill="#ADB7BD" />
<rect x="242" y="308" width="11" height="44" fill="#E4EBEF" />
<rect x="275" y="308" width="11" height="33" fill="#43426E" />
<rect x="319" y="308" width="11" height="55" fill="#43426E" />
<rect x="330" y="308" width="11" height="11" fill="#F0DA57" />
<rect x="341" y="308" width="11" height="55" fill="#43426E" />
<rect x="363" y="308" width="11" height="11" fill="#43426E" />
<rect x="374" y="308" width="44" height="11" fill="#E4EBEF" />
<rect x="418" y="308" width="242" height="11" fill="#C4D2DA" />
<rect x="176" y="319" width="11" height="352" fill="#C4D2DA" />
<rect x="209" y="319" width="11" height="33" fill="#ADB7BD" />
<rect x="253" y="319" width="11" height="44" fill="#E4EBEF" />
<rect x="264" y="319" width="11" height="11" fill="#43426E" />
<rect x="297" y="319" width="11" height="33" fill="#F0DA57" />
<rect x="330" y="319" width="11" height="33" fill="#43426E" />
<rect x="363" y="319" width="22" height="22" fill="#F0DA57" />
<rect x="385" y="319" width="44" height="11" fill="#E4EBEF" />
<rect x="429" y="319" width="231" height="11" fill="#C4D2DA" />
<rect x="187" y="330" width="11" height="341" fill="#C4D2DA" />
<rect x="220" y="330" width="11" height="33" fill="#ADB7BD" />
<rect x="264" y="330" width="11" height="44" fill="#E4EBEF" />
<rect x="286" y="330" width="11" height="22" fill="#F0DA57" />
<rect x="308" y="330" width="11" height="11" fill="#F0DA57" />
<rect x="352" y="330" width="11" height="11" fill="#F0DA57" />
<rect x="385" y="330" width="11" height="33" fill="#43426E" />
<rect x="396" y="330" width="44" height="11" fill="#E4EBEF" />
<rect x="440" y="330" width="220" height="11" fill="#C4D2DA" />
<rect x="198" y="341" width="11" height="330" fill="#C4D2DA" />
<rect x="231" y="341" width="11" height="33" fill="#ADB7BD" />
<rect x="275" y="341" width="11" height="44" fill="#E4EBEF" />
<rect x="308" y="341" width="11" height="33" fill="#43426E" />
<rect x="352" y="341" width="11" height="55" fill="#43426E" />
<rect x="363" y="341" width="11" height="11" fill="#F0DA57" />
<rect x="374" y="341" width="11" height="55" fill="#43426E" />
<rect x="396" y="341" width="11" height="11" fill="#43426E" />
<rect x="407" y="341" width="44" height="11" fill="#E4EBEF" />
<rect x="451" y="341" width="209" height="11" fill="#C4D2DA" />
<rect x="209" y="352" width="11" height="319" fill="#C4D2DA" />
<rect x="242" y="352" width="11" height="33" fill="#ADB7BD" />
<rect x="286" y="352" width="11" height="44" fill="#E4EBEF" />
<rect x="297" y="352" width="11" height="11" fill="#43426E" />
<rect x="330" y="352" width="11" height="33" fill="#F0DA57" />
<rect x="363" y="352" width="11" height="33" fill="#43426E" />
<rect x="396" y="352" width="22" height="22" fill="#F0DA57" />
<rect x="418" y="352" width="44" height="11" fill="#E4EBEF" />
<rect x="462" y="352" width="198" height="11" fill="#C4D2DA" />
<rect x="220" y="363" width="11" height="308" fill="#C4D2DA" />
<rect x="253" y="363" width="11" height="33" fill="#ADB7BD" />
<rect x="297" y="363" width="11" height="44" fill="#E4EBEF" />
<rect x="319" y="363" width="11" height="22" fill="#F0DA57" />
<rect x="341" y="363" width="11" height="11" fill="#F0DA57" />
<rect x="385" y="363" width="11" height="11" fill="#F0DA57" />
<rect x="418" y="363" width="11" height="33" fill="#43426E" />
<rect x="429" y="363" width="44" height="11" fill="#E4EBEF" />
<rect x="473" y="363" width="187" height="11" fill="#C4D2DA" />
<rect x="231" y="374" width="11" height="297" fill="#C4D2DA" />
<rect x="264" y="374" width="11" height="33" fill="#ADB7BD" />
<rect x="308" y="374" width="11" height="44" fill="#E4EBEF" />
<rect x="341" y="374" width="11" height="33" fill="#43426E" />
<rect x="385" y="374" width="11" height="55" fill="#43426E" />
<rect x="396" y="374" width="11" height="11" fill="#F0DA57" />
<rect x="407" y="374" width="11" height="55" fill="#43426E" />
<rect x="429" y="374" width="11" height="11" fill="#43426E" />
<rect x="440" y="374" width="44" height="11" fill="#E4EBEF" />
<rect x="484" y="374" width="176" height="11" fill="#C4D2DA" />
<rect x="242" y="385" width="11" height="286" fill="#C4D2DA" />
<rect x="275" y="385" width="11" height="33" fill="#ADB7BD" />
<rect x="319" y="385" width="11" height="44" fill="#E4EBEF" />
<rect x="330" y="385" width="11" height="11" fill="#43426E" />
<rect x="363" y="385" width="11" height="33" fill="#F0DA57" />
<rect x="396" y="385" width="11" height="33" fill="#43426E" />
<rect x="429" y="385" width="22" height="22" fill="#F0DA57" />
<rect x="451" y="385" width="44" height="11" fill="#E4EBEF" />
<rect x="495" y="385" width="165" height="11" fill="#C4D2DA" />
<rect x="253" y="396" width="11" height="275" fill="#C4D2DA" />
<rect x="286" y="396" width="11" height="33" fill="#ADB7BD" />
<rect x="330" y="396" width="11" height="44" fill="#E4EBEF" />
<rect x="352" y="396" width="11" height="22" fill="#F0DA57" />
<rect x="374" y="396" width="11" height="11" fill="#F0DA57" />
<rect x="418" y="396" width="11" height="11" fill="#F0DA57" />
<rect x="451" y="396" width="11" height="33" fill="#43426E" />
<rect x="462" y="396" width="44" height="11" fill="#E4EBEF" />
<rect x="506" y="396" width="154" height="11" fill="#C4D2DA" />
<rect x="264" y="407" width="11" height="264" fill="#C4D2DA" />
<rect x="297" y="407" width="11" height="33" fill="#ADB7BD" />
<rect x="341" y="407" width="11" height="44" fill="#E4EBEF" />
<rect x="374" y="407" width="11" height="33" fill="#43426E" />
<rect x="418" y="407" width="11" height="55" fill="#43426E" />
<rect x="429" y="407" width="11" height="11" fill="#F0DA57" />
<rect x="440" y="407" width="11" height="55" fill="#43426E" />
<rect x="462" y="407" width="11" height="11" fill="#43426E" />
<rect x="473" y="407" width="44" height="11" fill="#E4EBEF" />
<rect x="517" y="407" width="143" height="11" fill="#C4D2DA" />
<rect x="275" y="418" width="11" height="253" fill="#C4D2DA" />
<rect x="308" y="418" width="11" height="33" fill="#ADB7BD" />
<rect x="352" y="418" width="11" height="44" fill="#E4EBEF" />
<rect x="363" y="418" width="11" height="11" fill="#43426E" />
<rect x="396" y="418" width="11" height="33" fill="#F0DA57" />
<rect x="429" y="418" width="11" height="33" fill="#43426E" />
<rect x="462" y="418" width="22" height="22" fill="#F0DA57" />
<rect x="484" y="418" width="44" height="11" fill="#E4EBEF" />
<rect x="528" y="418" width="132" height="11" fill="#C4D2DA" />
<rect x="286" y="429" width="11" height="242" fill="#C4D2DA" />
<rect x="319" y="429" width="11" height="33" fill="#ADB7BD" />
<rect x="363" y="429" width="11" height="44" fill="#E4EBEF" />
<rect x="385" y="429" width="11" height="22" fill="#F0DA57" />
<rect x="407" y="429" width="11" height="11" fill="#F0DA57" />
<rect x="451" y="429" width="11" height="11" fill="#F0DA57" />
<rect x="484" y="429" width="11" height="33" fill="#43426E" />
<rect x="495" y="429" width="44" height="11" fill="#E4EBEF" />
<rect x="539" y="429" width="121" height="11" fill="#C4D2DA" />
<rect x="297" y="440" width="11" height="231" fill="#C4D2DA" />
<rect x="330" y="440" width="11" height="33" fill="#ADB7BD" />
<rect x="374" y="440" width="11" height="44" fill="#E4EBEF" />
<rect x="407" y="440" width="11" height="33" fill="#43426E" />
<rect x="451" y="440" width="11" height="55" fill="#43426E" />
<rect x="462" y="440" width="11" height="11" fill="#F0DA57" />
<rect x="473" y="440" width="11" height="55" fill="#43426E" />
<rect x="495" y="440" width="11" height="11" fill="#43426E" />
<rect x="506" y="440" width="44" height="11" fill="#E4EBEF" />
<rect x="550" y="440" width="110" height="11" fill="#C4D2DA" />
<rect x="308" y="451" width="11" height="220" fill="#C4D2DA" />
<rect x="341" y="451" width="11" height="33" fill="#ADB7BD" />
<rect x="385" y="451" width="11" height="44" fill="#E4EBEF" />
<rect x="396" y="451" width="11" height="11" fill="#43426E" />
<rect x="429" y="451" width="11" height="33" fill="#F0DA57" />
<rect x="462" y="451" width="11" height="33" fill="#43426E" />
<rect x="495" y="451" width="22" height="22" fill="#F0DA57" />
<rect x="517" y="451" width="44" height="11" fill="#E4EBEF" />
<rect x="561" y="451" width="99" height="11" fill="#C4D2DA" />
<rect x="319" y="462" width="11" height="209" fill="#C4D2DA" />
<rect x="352" y="462" width="11" height="33" fill="#ADB7BD" />
<rect x="396" y="462" width="11" height="44" fill="#E4EBEF" />
<rect x="418" y="462" width="11" height="22" fill="#F0DA57" />
<rect x="440" y="462" width="11" height="11" fill="#F0DA57" />
<rect x="484" y="462" width="11" height="11" fill="#F0DA57" />
<rect x="517" y="462" width="11" height="33" fill="#43426E" />
<rect x="528" y="462" width="44" height="11" fill="#E4EBEF" />
<rect x="572" y="462" width="88" height="11" fill="#C4D2DA" />
<rect x="330" y="473" width="11" height="198" fill="#C4D2DA" />
<rect x="363" y="473" width="11" height="33" fill="#ADB7BD" />
<rect x="407" y="473" width="11" height="44" fill="#E4EBEF" />
<rect x="440" y="473" width="11" height="33" fill="#43426E" />
<rect x="484" y="473" width="11" height="55" fill="#43426E" />
<rect x="495" y="473" width="11" height="11" fill="#F0DA57" />
<rect x="506" y="473" width="11" height="55" fill="#43426E" />
<rect x="528" y="473" width="11" height="11" fill="#43426E" />
<rect x="539" y="473" width="44" height="11" fill="#E4EBEF" />
<rect x="583" y="473" width="77" height="11" fill="#C4D2DA" />
<rect x="341" y="484" width="11" height="187" fill="#C4D2DA" />
<rect x="374" y="484" width="11" height="33" fill="#ADB7BD" />
<rect x="418" y="484" width="11" height="44" fill="#E4EBEF" />
<rect x="429" y="484" width="11" height="11" fill="#43426E" />
<rect x="462" y="484" width="11" height="33" fill="#F0DA57" />
<rect x="495" y="484" width="11" height="33" fill="#43426E" />
<rect x="528" y="484" width="22" height="22" fill="#F0DA57" />
<rect x="550" y="484" width="44" height="11" fill="#E4EBEF" />
<rect x="594" y="484" width="66" height="11" fill="#C4D2DA" />
<rect x="352" y="495" width="11" height="176" fill="#C4D2DA" />
<rect x="385" y="495" width="11" height="33" fill="#ADB7BD" />
<rect x="429" y="495" width="11" height="44" fill="#E4EBEF" />
<rect x="451" y="495" width="11" height="22" fill="#F0DA57" />
<rect x="473" y="495" width="11" height="11" fill="#F0DA57" />
<rect x="517" y="495" width="11" height="11" fill="#F0DA57" />
<rect x="550" y="495" width="11" height="33" fill="#43426E" />
<rect x="561" y="495" width="44" height="11" fill="#E4EBEF" />
<rect x="605" y="495" width="55" height="11" fill="#C4D2DA" />
<rect x="363" y="506" width="11" height="165" fill="#C4D2DA" />
<rect x="396" y="506" width="11" height="33" fill="#ADB7BD" />
<rect x="440" y="506" width="11" height="44" fill="#E4EBEF" />
<rect x="473" y="506" width="11" height="33" fill="#43426E" />
<rect x="517" y="506" width="11" height="55" fill="#43426E" />
<rect x="528" y="506" width="11" height="11" fill="#F0DA57" />
<rect x="539" y="506" width="11" height="55" fill="#43426E" />
<rect x="561" y="506" width="11" height="11" fill="#43426E" />
<rect x="572" y="506" width="44" height="11" fill="#E4EBEF" />
<rect x="616" y="506" width="44" height="11" fill="#C4D2DA" />
<rect x="374" y="517" width="11" height="154" fill="#C4D2DA" />
<rect x="407" y="517" width="11" height="33" fill="#ADB7BD" />
<rect x="451" y="517" width="11" height="44" fill="#E4EBEF" />
<rect x="462" y="517" width="11" height="11" fill="#43426E" />
<rect x="495" y="517" width="11" height="33" fill="#F0DA57" />
<rect x="528" y="517" width="11" height="33" fill="#43426E" />
<rect x="561" y="517" width="22" height="22" fill="#F0DA57" />
<rect x="583" y="517" width="44" height="11" fill="#E4EBEF" />
<rect x="627" y="517" width="33" height="11" fill="#C4D2DA" />
<rect x="385" y="528" width="11" height="143" fill="#C4D2DA" />
<rect x="418" y="528" width="11" height="33" fill="#ADB7BD" />
<rect x="462" y="528" width="11" height="44" fill="#E4EBEF" />
<rect x="484" y="528" width="11" height="22" fill="#F0DA57" />
<rect x="506" y="528" width="11" height="11" fill="#F0DA57" />
<rect x="550" y="528" width="11" height="11" fill="#F0DA57" />
<rect x="583" y="528" width="11" height="33" fill="#43426E" />
<rect x="594" y="528" width="44" height="11" fill="#E4EBEF" />
<rect x="638" y="528" width="22" height="11" fill="#C4D2DA" />
<rect x="396" y="539" width="11" height="132" fill="#C4D2DA" />
<rect x="429" y="539" width="11" height="33" fill="#ADB7BD" />
<rect x="473" y="539" width="11" height="44" fill="#E4EBEF" />
<rect x="506" y="539" width="11" height="33" fill="#43426E" />
<rect x="550" y="539" width="11" height="55" fill="#43426E" />
<rect x="561" y="539" width="11" height="11" fill="#F0DA57" />
<rect x="572" y="539" width="11" height="55" fill="#43426E" />
<rect x="594" y="539" width="11" height="11" fill="#43426E" />
<rect x="605" y="539" width="44" height="11" fill="#E4EBEF" />
<rect x="649" y="539" width="11" height="11" fill="#C4D2DA" />
<rect x="407" y="550" width="11" height="121" fill="#C4D2DA" />
<rect x="440" y="550" width="11" height="33" fill="#ADB7BD" />
<rect x="484" y="550" width="11" height="44" fill="#E4EBEF" />
<rect x="495" y="550" width="11" height="11" fill="#43426E" />
<rect x="528" y="550" width="11" height="33" fill="#F0DA57" />
<rect x="561" y="550" width="11" height="33" fill="#43426E" />
<rect x="594" y="550" width="22" height="22" fill="#F0DA57" />
<rect x="616" y="550" width="44" height="11" fill="#E4EBEF" />
<rect x="418" y="561" width="11" height="110" fill="#C4D2DA" />
<rect x="451" y="561" width="11" height="33" fill="#ADB7BD" />
<rect x="495" y="561" width="11" height="44" fill="#E4EBEF" />
<rect x="517" y="561" width="11" height="22" fill="#F0DA57" />
<rect x="539" y="561" width="11" height="11" fill="#F0DA57" />
<rect x="583" y="561" width="11" height="11" fill="#F0DA57" />
<rect x="616" y="561" width="11" height="33" fill="#43426E" />
<rect x="627" y="561" width="44" height="11" fill="#E4EBEF" />
<rect x="429" y="572" width="11" height="99" fill="#C4D2DA" />
<rect x="462" y="572" width="11" height="33" fill="#ADB7BD" />
<rect x="506" y="572" width="11" height="44" fill="#E4EBEF" />
<rect x="539" y="572" width="11" height="33" fill="#43426E" />
<rect x="583" y="572" width="11" height="55" fill="#43426E" />
<rect x="594" y="572" width="11" height="11" fill="#F0DA57" />
<rect x="605" y="572" width="11" height="55" fill="#43426E" />
<rect x="627" y="572" width="11" height="11" fill="#43426E" />
<rect x="638" y="572" width="33" height="11" fill="#E4EBEF" />
<rect x="440" y="583" width="11" height="88" fill="#C4D2DA" />
<rect x="473" y="583" width="11" height="33" fill="#ADB7BD" />
<rect x="517" y="583" width="11" height="44" fill="#E4EBEF" />
<rect x="528" y="583" width="11" height="11" fill="#43426E" />
<rect x="561" y="583" width="11" height="33" fill="#F0DA57" />
<rect x="594" y="583" width="11" height="33" fill="#43426E" />
<rect x="627" y="583" width="22" height="22" fill="#F0DA57" />
<rect x="649" y="583" width="22" height="11" fill="#E4EBEF" />
<rect x="451" y="594" width="11" height="77" fill="#C4D2DA" />
<rect x="484" y="594" width="11" height="33" fill="#ADB7BD" />
<rect x="528" y="594" width="11" height="44" fill="#E4EBEF" />
<rect x="550" y="594" width="11" height="22" fill="#F0DA57" />
<rect x="572" y="594" width="11" height="11" fill="#F0DA57" />
<rect x="616" y="594" width="11" height="11" fill="#F0DA57" />
<rect x="649" y="594" width="11" height="33" fill="#43426E" />
<rect x="660" y="594" width="11" height="11" fill="#E4EBEF" />
<rect x="462" y="605" width="11" height="66" fill="#C4D2DA" />
<rect x="495" y="605" width="11" height="33" fill="#ADB7BD" />
<rect x="539" y="605" width="11" height="44" fill="#E4EBEF" />
<rect x="572" y="605" width="11" height="33" fill="#43426E" />
<rect x="616" y="605" width="11" height="55" fill="#43426E" />
<rect x="627" y="605" width="11" height="11" fill="#F0DA57" />
<rect x="638" y="605" width="11" height="55" fill="#43426E" />
<rect x="660" y="605" width="11" height="11" fill="#43426E" />
<rect x="473" y="616" width="11" height="55" fill="#C4D2DA" />
<rect x="506" y="616" width="11" height="33" fill="#ADB7BD" />
<rect x="550" y="616" width="11" height="44" fill="#E4EBEF" />
<rect x="561" y="616" width="11" height="11" fill="#43426E" />
<rect x="594" y="616" width="11" height="33" fill="#F0DA57" />
<rect x="627" y="616" width="11" height="33" fill="#43426E" />
<rect x="660" y="616" width="22" height="22" fill="#F0DA57" />
<rect x="682" y="616" width="22" height="11" fill="#E4EBEF" />
<rect x="484" y="627" width="11" height="44" fill="#C4D2DA" />
<rect x="517" y="627" width="11" height="33" fill="#ADB7BD" />
<rect x="561" y="627" width="11" height="77" fill="#E4EBEF" />
<rect x="583" y="627" width="11" height="22" fill="#F0DA57" />
<rect x="605" y="627" width="11" height="11" fill="#F0DA57" />
<rect x="649" y="627" width="11" height="11" fill="#F0DA57" />
<rect x="682" y="627" width="11" height="33" fill="#43426E" />
<rect x="693" y="627" width="11" height="11" fill="#E4EBEF" />
<rect x="495" y="638" width="11" height="33" fill="#C4D2DA" />
<rect x="528" y="638" width="11" height="33" fill="#ADB7BD" />
<rect x="572" y="638" width="11" height="66" fill="#E4EBEF" />
<rect x="605" y="638" width="11" height="33" fill="#43426E" />
<rect x="649" y="638" width="11" height="55" fill="#43426E" />
<rect x="660" y="638" width="11" height="11" fill="#F0DA57" />
<rect x="671" y="638" width="11" height="55" fill="#43426E" />
<rect x="693" y="638" width="11" height="11" fill="#43426E" />
<rect x="506" y="649" width="11" height="22" fill="#C4D2DA" />
<rect x="539" y="649" width="11" height="22" fill="#ADB7BD" />
<rect x="583" y="649" width="11" height="55" fill="#E4EBEF" />
<rect x="594" y="649" width="11" height="11" fill="#43426E" />
<rect x="627" y="649" width="11" height="33" fill="#F0DA57" />
<rect x="660" y="649" width="11" height="33" fill="#43426E" />
<rect x="693" y="649" width="11" height="33" fill="#F0DA57" />
<rect x="517" y="660" width="11" height="11" fill="#C4D2DA" />
<rect x="550" y="660" width="11" height="11" fill="#ADB7BD" />
<rect x="594" y="660" width="11" height="44" fill="#E4EBEF" />
<rect x="616" y="660" width="11" height="22" fill="#F0DA57" />
<rect x="638" y="660" width="11" height="11" fill="#F0DA57" />
<rect x="682" y="660" width="11" height="11" fill="#F0DA57" />
<rect x="33" y="671" width="528" height="33" fill="#E4EBEF" />
<rect x="605" y="671" width="11" height="33" fill="#E4EBEF" />
<rect x="638" y="671" width="11" height="33" fill="#43426E" />
<rect x="682" y="671" width="11" height="33" fill="#43426E" />
<rect x="616" y="682" width="11" height="22" fill="#E4EBEF" />
<rect x="627" y="682" width="11" height="11" fill="#43426E" />
<rect x="660" y="682" width="11" height="22" fill="#F0DA57" />
<rect x="693" y="682" width="11" height="22" fill="#43426E" />
<rect x="627" y="693" width="11" height="11" fill="#E4EBEF" />
<rect x="649" y="693" width="11" height="11" fill="#F0DA57" />
<rect x="671" y="693" width="11" height="11" fill="#F0DA57" />
</svg>