<?xml version="1.0" encoding="UTF-8" ?>
<svg version="1.1" width="704" height="704" xmlns="http://www.w3.org/2000/svg" shape-rendering="crispEdges">
<rect x="0" y="0" width="352" height="11" fill="#595652" />
<rect x="352" y="0" width="22" height="11" fill="#2D2952" />
<rect x="374" y="0" width="33" height="11" fill="#DAC13C" />
<rect x="407" y="0" width="11" height="33" fill="#2D2952" />
<rect x="418" y="0" width="286" height="11" fill="#E4EBEF" />
<rect x="0" y="11" width="22" height="341" fill="#676461" />
<rect x="22" y="11" width="341" height="11" fill="#595652" />
<rect x="363" y="11" width="22" height="11" fill="#2D2952" />
<rect x="385" y="11" width="11" height="11" fill="#DAC13C" />
<rect x="396" y="11" width="11" height="44" fill="#2D2952" />
<rect x="418" y="11" width="11" height="11" fill="#2D2952" />
<rect x="429" y="11" width="275" height="11" fill="#E4EBEF" />
<rect x="22" y="22" width="22" height="352" fill="#676461" />
<rect x="44" y="22" width="330" height="11" fill="#595652" />
<rect x="374" y="22" width="22" height="11" fill="#2D2952" />
<rect x="418" y="22" width="22" height="22" fill="#DAC13C" />
<rect x="440" y="22" width="264" height="11" fill="#E4EBEF" />
<rect x="44" y="33" width="33" height="363" fill="#676461" />
<rect x="77" y="33" width="308" height="11" fill="#595652" />
<rect x="385" y="33" width="11" height="11" fill="#2D2952" />
<rect x="407" y="33" width="11" height="11" fill="#DAC13C" />
<rect x="440" y="33" width="11" height="33" fill="#2D2952" />
<rect x="451" y="33" width="44" height="11" fill="#E4EBEF" />
<rect x="495" y="33" width="176" height="11" fill="#ADB7BD" />
<rect x="671" y="33" width="33" height="231" fill="#E4EBEF" />
<rect x="77" y="44" width="22" height="385" fill="#676461" />
<rect x="99" y="44" width="297" height="11" fill="#595652" />
<rect x="407" y="44" width="11" height="22" fill="#2D2952" />
<rect x="418" y="44" width="11" height="11" fill="#DAC13C" />
<rect x="429" y="44" width="11" height="33" fill="#2D2952" />
<rect x="451" y="44" width="11" height="11" fill="#2D2952" />
<rect x="462" y="44" width="44" height="11" fill="#E4EBEF" />
<rect x="506" y="44" width="165" height="11" fill="#ADB7BD" />
<rect x="99" y="55" width="33" height="396" fill="#676461" />
<rect x="132" y="55" width="275" height="11" fill="#595652" />
<rect x="418" y="55" width="11" height="22" fill="#2D2952" />
<rect x="451" y="55" width="22" height="22" fill="#DAC13C" />
<rect x="473" y="55" width="44" height="11" fill="#E4EBEF" />
<rect x="517" y="55" width="132" height="11" fill="#C4D2DA" />
<rect x="649" y="55" width="22" height="143" fill="#ADB7BD" />
<rect x="132" y="66" width="22" height="418" fill="#676461" />
<rect x="154" y="66" width="264" height="11" fill="#595652" />
<rect x="440" y="66" width="11" height="11" fill="#DAC13C" />
<rect x="473" y="66" width="11" height="11" fill="#2D2952" />
<rect x="484" y="66" width="44" height="11" fill="#E4EBEF" />
<rect x="528" y="66" width="121" height="11" fill="#C4D2DA" />
<rect x="154" y="77" width="22" height="429" fill="#676461" />
<rect x="176" y="77" width="253" height="11" fill="#3A3937" />
<rect x="429" y="77" width="22" height="11" fill="#27234C" />
<rect x="451" y="77" width="11" height="11" fill="#D4BB37" />
<rect x="462" y="77" width="33" height="11" fill="#27234C" />
<rect x="495" y="77" width="44" height="11" fill="#E4EBEF" />
<rect x="539" y="77" width="110" height="11" fill="#C4D2DA" />
<rect x="176" y="88" width="11" height="440" fill="#595652" />
<rect x="187" y="88" width="253" height="11" fill="#3A3937" />
<rect x="440" y="88" width="44" height="11" fill="#27234C" />
<rect x="484" y="88" width="22" height="22" fill="#D4BB37" />
<rect x="506" y="88" width="44" height="11" fill="#E4EBEF" />
<rect x="550" y="88" width="99" height="11" fill="#C4D2DA" />
<rect x="187" y="99" width="11" height="418" fill="#595652" />
<rect x="198" y="99" width="253" height="11" fill="#3A3937" />
<rect x="451" y="99" width="22" height="11" fill="#27234C" />
<rect x="473" y="99" width="11" height="11" fill="#D4BB37" />
<rect x="506" y="99" width="11" height="33" fill="#2D2952" />
<rect x="517" y="99" width="44" height="11" fill="#E4EBEF" />
<rect x="561" y="99" width="88" height="11" fill="#C4D2DA" />
<rect x="198" y="110" width="11" height="396" fill="#595652" />
<rect x="209" y="110" width="253" height="11" fill="#3A3937" />
<rect x="462" y="110" width="22" height="11" fill="#27234C" />
<rect x="484" y="110" width="11" height="11" fill="#D4BB37" />
<rect x="495" y="110" width="11" height="44" fill="#2D2952" />
<rect x="517" y="110" width="11" height="11" fill="#2D2952" />
<rect x="528" y="110" width="44" height="11" fill="#E4EBEF" />
<rect x="572" y="110" width="77" height="11" fill="#C4D2DA" />
<rect x="209" y="121" width="11" height="374" fill="#595652" />
<rect x="220" y="121" width="253" height="11" fill="#3A3937" />
<rect x="473" y="121" width="11" height="11" fill="#27234C" />
<rect x="484" y="121" width="11" height="22" fill="#2D2952" />
<rect x="517" y="121" width="11" height="33" fill="#DAC13C" />
<rect x="528" y="121" width="11" height="22" fill="#DDC43F" />
<rect x="539" y="121" width="44" height="11" fill="#E4EBEF" />
<rect x="583" y="121" width="66" height="11" fill="#C4D2DA" />
<rect x="220" y="132" width="11" height="352" fill="#595652" />
<rect x="231" y="132" width="242" height="11" fill="#3A3937" />
<rect x="473" y="132" width="11" height="352" fill="#595652" />
<rect x="506" y="132" width="11" height="11" fill="#DAC13C" />
<rect x="539" y="132" width="11" height="33" fill="#302C55" />
<rect x="550" y="132" width="44" height="11" fill="#E4EBEF" />
<rect x="594" y="132" width="55" height="11" fill="#C4D2DA" />
<rect x="231" y="143" width="11" height="330" fill="#595652" />
<rect x="242" y="143" width="220" height="11" fill="#3A3937" />
<rect x="462" y="143" width="11" height="330" fill="#595652" />
<rect x="484" y="143" width="11" height="352" fill="#595652" />
<rect x="506" y="143" width="11" height="22" fill="#2D2952" />
<rect x="528" y="143" width="11" height="44" fill="#302C55" />
<rect x="550" y="143" width="11" height="11" fill="#302C55" />
<rect x="561" y="143" width="44" height="11" fill="#E4EBEF" />
<rect x="605" y="143" width="44" height="11" fill="#C4D2DA" />
<rect x="242" y="154" width="11" height="319" fill="#595652" />
<rect x="253" y="154" width="198" height="319" fill="#3A3937" />
<rect x="451" y="154" width="11" height="319" fill="#595652" />
<rect x="495" y="154" width="11" height="352" fill="#595652" />
<rect x="517" y="154" width="11" height="22" fill="#2D2952" />
<rect x="550" y="154" width="22" height="22" fill="#DDC43F" />
<rect x="572" y="154" width="44" height="11" fill="#E4EBEF" />
<rect x="616" y="154" width="33" height="11" fill="#C4D2DA" />
<rect x="506" y="165" width="11" height="352" fill="#595652" />
<rect x="539" y="165" width="11" height="11" fill="#DDC43F" />
<rect x="572" y="165" width="11" height="33" fill="#302C55" />
<rect x="583" y="165" width="44" height="11" fill="#E4EBEF" />
<rect x="627" y="165" width="22" height="11" fill="#C4D2DA" />
<rect x="517" y="176" width="11" height="352" fill="#595652" />
<rect x="539" y="176" width="11" height="22" fill="#302C55" />
<rect x="550" y="176" width="11" height="11" fill="#DDC43F" />
<rect x="561" y="176" width="11" height="44" fill="#302C55" />
<rect x="583" y="176" width="11" height="11" fill="#302C55" />
<rect x="594" y="176" width="44" height="11" fill="#E4EBEF" />
<rect x="638" y="176" width="11" height="11" fill="#C4D2DA" />
<rect x="528" y="187" width="11" height="341" fill="#676461" />
<rect x="550" y="187" width="11" height="22" fill="#302C55" />
<rect x="583" y="187" width="22" height="22" fill="#DDC43F" />
<rect x="605" y="187" width="44" height="11" fill="#E4EBEF" />
<rect x="539" y="198" width="11" height="341" fill="#676461" />
<rect x="572" y="198" width="11" height="11" fill="#DDC43F" />
<rect x="605" y="198" width="11" height="33" fill="#302C55" />
<rect x="616" y="198" width="44" height="11" fill="#E4EBEF" />
<rect x="660" y="198" width="11" height="11" fill="#ADB7BD" />
<rect x="550" y="209" width="11" height="341" fill="#676461" />
<rect x="572" y="209" width="11" height="22" fill="#302C55" />
<rect x="583" y="209" width="11" height="11" fill="#DDC43F" />
<rect x="594" y="209" width="11" height="44" fill="#302C55" />
<rect x="616" y="209" width="11" height="11" fill="#302C55" />
<rect x="627" y="209" width="44" height="11" fill="#E4EBEF" />
<rect x="561" y="220" width="11" height="341" fill="#676461" />
<rect x="583" y="220" width="11" height="22" fill="#302C55" />
<rect x="616" y="220" width="22" height="22" fill="#DDC43F" />
<rect x="638" y="220" width="33" height="11" fill="#E4EBEF" />
<rect x="572" y="231" width="11" height="341" fill="#676461" />
<rect x="605" y="231" width="11" height="11" fill="#DDC43F" />
<rect x="638" y="231" width="11" height="33" fill="#302C55" />
<rect x="649" y="231" width="22" height="11" fill="#E4EBEF" />
<rect x="583" y="242" width="11" height="341" fill="#676461" />
<rect x="605" y="242" width="11" height="22" fill="#302C55" />
<rect x="616" y="242" width="11" height="11" fill="#DDC43F" />
<rect x="627" y="242" width="11" height="44" fill="#302C55" />
<rect x="649" y="242" width="11" height="11" fill="#302C55" />
<rect x="660" y="242" width="11" height="11" fill="#E4EBEF" />
<rect x="594" y="253" width="11" height="341" fill="#676461" />
<rect x="616" y="253" width="11" height="22" fill="#302C55" />
<rect x="649" y="253" width="22" height="22" fill="#DDC43F" />
<rect x="605" y="264" width="11" height="341" fill="#676461" />
<rect x="638" y="264" width="11" height="11" fill="#DDC43F" />
<rect x="671" y="264" width="11" height="33" fill="#302C55" />
<rect x="682" y="264" width="22" height="11" fill="#E4EBEF" />
<rect x="616" y="275" width="11" height="341" fill="#676461" />
<rect x="638" y="275" width="11" height="22" fill="#302C55" />
<rect x="649" y="275" width="11" height="11" fill="#DDC43F" />
<rect x="660" y="275" width="11" height="44" fill="#302C55" />
<rect x="682" y="275" width="11" height="11" fill="#302C55" />
<rect x="693" y="275" width="11" height="11" fill="#E4EBEF" />
<rect x="627" y="286" width="11" height="341" fill="#676461" />
<rect x="649" y="286" width="11" height="22" fill="#302C55" />
<rect x="682" y="286" width="22" height="22" fill="#DDC43F" />
<rect x="638" y="297" width="11" height="341" fill="#676461" />
<rect x="671" y="297" width="11" height="11" fill="#DDC43F" />
<rect x="649" y="308" width="11" height="341" fill="#676461" />
<rect x="671" y="308" width="11" height="22" fill="#302C55" />
<rect x="682" y="308" width="11" height="11" fill="#DDC43F" />
<rect x="693" y="308" width="11" height="44" fill="#302C55" />
<rect x="660" y="319" width="11" height="341" fill="#676461" />
<rect x="682" y="319" width="11" height="22" fill="#302C55" />
<rect x="671" y="330" width="11" height="341" fill="#676461" />
<rect x="682" y="341" width="11" height="341" fill="#676461" />
<rect x="0" y="352" width="11" height="44" fill="#302C55" />
<rect x="11" y="352" width="11" height="11" fill="#676461" />
<rect x="693" y="352" width="11" height="341" fill="#676461" />
<rect x="11" y="363" width="11" height="22" fill="#302C55" />
<rect x="22" y="374" width="11" height="22" fill="#302C55" />
<rect x="33" y="374" width="11" height="11" fill="#676461" />
<rect x="11" y="385" width="11" height="33" fill="#DDC43F" />
<rect x="33" y="385" width="11" height="44" fill="#302C55" />
<rect x="0" y="396" width="11" height="22" fill="#DDC43F" />
<rect x="22" y="396" width="11" height="11" fill="#DDC43F" />
<rect x="44" y="396" width="11" height="22" fill="#302C55" />
<rect x="55" y="396" width="22" height="11" fill="#676461" />
<rect x="22" y="407" width="11" height="33" fill="#302C55" />
<rect x="55" y="407" width="11" height="22" fill="#302C55" />
<rect x="66" y="407" width="11" height="11" fill="#676461" />
<rect x="0" y="418" width="11" height="286" fill="#E4EBEF" />
<rect x="11" y="418" width="11" height="11" fill="#302C55" />
<rect x="44" y="418" width="11" height="33" fill="#DDC43F" />
<rect x="66" y="418" width="11" height="44" fill="#302C55" />
<rect x="11" y="429" width="11" height="275" fill="#E4EBEF" />
<rect x="33" y="429" width="11" height="22" fill="#DDC43F" />
<rect x="55" y="429" width="11" height="11" fill="#DDC43F" />
<rect x="77" y="429" width="11" height="22" fill="#302C55" />
<rect x="88" y="429" width="11" height="11" fill="#676461" />
<rect x="22" y="440" width="11" height="264" fill="#E4EBEF" />
<rect x="55" y="440" width="11" height="33" fill="#302C55" />
<rect x="88" y="440" width="11" height="22" fill="#302C55" />
<rect x="33" y="451" width="11" height="44" fill="#E4EBEF" />
<rect x="44" y="451" width="11" height="11" fill="#302C55" />
<rect x="77" y="451" width="11" height="33" fill="#DDC43F" />
<rect x="99" y="451" width="11" height="44" fill="#302C55" />
<rect x="110" y="451" width="22" height="11" fill="#676461" />
<rect x="44" y="462" width="11" height="44" fill="#E4EBEF" />
<rect x="66" y="462" width="11" height="22" fill="#DDC43F" />
<rect x="88" y="462" width="11" height="11" fill="#DDC43F" />
<rect x="110" y="462" width="11" height="22" fill="#302C55" />
<rect x="121" y="462" width="11" height="11" fill="#676461" />
<rect x="55" y="473" width="11" height="44" fill="#E4EBEF" />
<rect x="88" y="473" width="11" height="33" fill="#302C55" />
<rect x="121" y="473" width="11" height="22" fill="#302C55" />
<rect x="231" y="473" width="242" height="55" fill="#71787B" />
<rect x="66" y="484" width="11" height="44" fill="#E4EBEF" />
<rect x="77" y="484" width="11" height="11" fill="#302C55" />
<rect x="110" y="484" width="11" height="33" fill="#DDC43F" />
<rect x="132" y="484" width="11" height="44" fill="#302C55" />
<rect x="143" y="484" width="11" height="11" fill="#676461" />
<rect x="220" y="484" width="11" height="44" fill="#71787B" />
<rect x="473" y="484" width="11" height="44" fill="#71787B" />
<rect x="33" y="495" width="11" height="33" fill="#ADB7BD" />
<rect x="77" y="495" width="11" height="44" fill="#E4EBEF" />
<rect x="99" y="495" width="11" height="22" fill="#DDC43F" />
<rect x="121" y="495" width="11" height="11" fill="#DDC43F" />
<rect x="143" y="495" width="11" height="22" fill="#302C55" />
<rect x="209" y="495" width="11" height="33" fill="#71787B" />
<rect x="484" y="495" width="11" height="33" fill="#71787B" />
<rect x="44" y="506" width="11" height="33" fill="#ADB7BD" />
<rect x="88" y="506" width="11" height="44" fill="#E4EBEF" />
<rect x="121" y="506" width="11" height="33" fill="#302C55" />
<rect x="154" y="506" width="11" height="22" fill="#302C55" />
<rect x="165" y="506" width="11" height="11" fill="#676461" />
<rect x="198" y="506" width="11" height="22" fill="#71787B" />
<rect x="495" y="506" width="11" height="22" fill="#71787B" />
<rect x="55" y="517" width="11" height="33" fill="#ADB7BD" />
<rect x="99" y="517" width="11" height="44" fill="#E4EBEF" />
<rect x="110" y="517" width="11" height="11" fill="#302C55" />
<rect x="143" y="517" width="11" height="33" fill="#DDC43F" />
<rect x="165" y="517" width="11" height="11" fill="#302C55" />
<rect x="187" y="517" width="11" height="11" fill="#71787B" />
<rect x="506" y="517" width="11" height="11" fill="#71787B" />
<rect x="33" y="528" width="11" height="143" fill="#C4D2DA" />
<rect x="66" y="528" width="11" height="33" fill="#ADB7BD" />
<rect x="110" y="528" width="11" height="44" fill="#E4EBEF" />
<rect x="132" y="528" width="11" height="22" fill="#DDC43F" />
<rect x="154" y="528" width="11" height="11" fill="#DDC43F" />
<rect x="165" y="528" width="22" height="22" fill="#373560" />
<rect x="187" y="528" width="352" height="11" fill="#899398" />
<rect x="44" y="539" width="11" height="132" fill="#C4D2DA" />
<rect x="77" y="539" width="11" height="33" fill="#ADB7BD" />
<rect x="121" y="539" width="11" height="44" fill="#E4EBEF" />
<rect x="154" y="539" width="11" height="33" fill="#373560" />
<rect x="187" y="539" width="11" height="22" fill="#373560" />
<rect x="198" y="539" width="352" height="11" fill="#899398" />
<rect x="55" y="550" width="11" height="121" fill="#C4D2DA" />
<rect x="88" y="550" width="11" height="33" fill="#ADB7BD" />
<rect x="132" y="550" width="11" height="44" fill="#E4EBEF" />
<rect x="143" y="550" width="11" height="11" fill="#373560" />
<rect x="165" y="550" width="11" height="11" fill="#373560" />
<rect x="176" y="550" width="11" height="33" fill="#E4CD4A" />
<rect x="198" y="550" width="11" height="44" fill="#373560" />
<rect x="209" y="550" width="352" height="11" fill="#899398" />
<rect x="66" y="561" width="11" height="110" fill="#C4D2DA" />
<rect x="99" y="561" width="11" height="33" fill="#ADB7BD" />
<rect x="143" y="561" width="11" height="44" fill="#E4EBEF" />
<rect x="165" y="561" width="11" height="22" fill="#E4CD4A" />
<rect x="187" y="561" width="11" height="11" fill="#E4CD4A" />
<rect x="209" y="561" width="11" height="22" fill="#373560" />
<rect x="220" y="561" width="352" height="11" fill="#899398" />
<rect x="77" y="572" width="11" height="99" fill="#C4D2DA" />
<rect x="110" y="572" width="11" height="33" fill="#ADB7BD" />
<rect x="154" y="572" width="11" height="44" fill="#E4EBEF" />
<rect x="187" y="572" width="11" height="33" fill="#373560" />
<rect x="220" y="572" width="11" height="22" fill="#373560" />
<rect x="231" y="572" width="352" height="11" fill="#899398" />
<rect x="88" y="583" width="11" height="88" fill="#C4D2DA" />
<rect x="121" y="583" width="11" height="33" fill="#ADB7BD" />
<rect x="165" y="583" width="11" height="44" fill="#E4EBEF" />
<rect x="176" y="583" width="11" height="11" fill="#373560" />
<rect x="209" y="583" width="11" height="33" fill="#E4CD4A" />
<rect x="231" y="583" width="11" height="44" fill="#373560" />
<rect x="242" y="583" width="352" height="11" fill="#899398" />
<rect x="99" y="594" width="11" height="77" fill="#C4D2DA" />
<rect x="132" y="594" width="11" height="33" fill="#ADB7BD" />
<rect x="176" y="594" width="11" height="44" fill="#E4EBEF" />
<rect x="198" y="594" width="11" height="22" fill="#E4CD4A" />
<rect x="220" y="594" width="11" height="11" fill="#E4CD4A" />
<rect x="242" y="594" width="11" height="22" fill="#373560" />
<rect x="253" y="594" width="352" height="11" fill="#899398" />
<rect x="110" y="605" width="11" height="66" fill="#C4D2DA" />
<rect x="143" y="605" width="11" height="33" fill="#ADB7BD" />
<rect x="187" y="605" width="11" height="44" fill="#E4EBEF" />
<rect x="220" y="605" width="11" height="33" fill="#373560" />
<rect x="253" y="605" width="11" height="22" fill="#373560" />
<rect x="264" y="605" width="352" height="11" fill="#899398" />
<rect x="121" y="616" width="11" height="55" fill="#C4D2DA" />
<rect x="154" y="616" width="11" height="33" fill="#ADB7BD" />
<rect x="198" y="616" width="11" height="44" fill="#E4EBEF" />
<rect x="209" y="616" width="11" height="11" fill="#373560" />
<rect x="242" y="616" width="11" height="33" fill="#E4CD4A" />
<rect x="264" y="616" width="11" height="44" fill="#373560" />
<rect x="275" y="616" width="352" height="11" fill="#899398" />
<rect x="132" y="627" width="11" height="44" fill="#C4D2DA" />
<rect x="165" y="627" width="11" height="33" fill="#ADB7BD" />
<rect x="209" y="627" width="11" height="77" fill="#E4EBEF" />
<rect x="231" y="627" width="11" height="22" fill="#E4CD4A" />
<rect x="253" y="627" width="11" height="11" fill="#E4CD4A" />
<rect x="275" y="627" width="11" height="22" fill="#373560" />
<rect x="286" y="627" width="352" height="11" fill="#899398" />
<rect x="143" y="638" width="11" height="33" fill="#C4D2DA" />
<rect x="176" y="638" width="11" height="33" fill="#ADB7BD" />
<rect x="220" y="638" width="11" height="66" fill="#E4EBEF" />
<rect x="253" y="638" width="11" height="33" fill="#373560" />
<rect x="286" y="638" width="11" height="22" fill="#373560" />
<rect x="297" y="638" width="352" height="11" fill="#899398" />
<rect x="154" y="649" width="11" height="22" fill="#C4D2DA" />
<rect x="187" y="649" width="11" height="22" fill="#ADB7BD" />
<rect x="231" y="649" width="11" height="55" fill="#E4EBEF" />
<rect x="242" y="649" width="11" height="11" fill="#373560" />
<rect x="275" y="649" width="11" height="33" fill="#E4CD4A" />
<rect x="297" y="649" width="11" height="44" fill="#373560" />
<rect x="308" y="649" width="352" height="11" fill="#899398" />
<rect x="165" y="660" width="11" height="11" fill="#C4D2DA" />
<rect x="198" y="660" width="11" height="11" fill="#ADB7BD" />
<rect x="242" y="660" width="11" height="44" fill="#E4EBEF" />
<rect x="264" y="660" width="11" height="22" fill="#E4CD4A" />
<rect x="286" y="660" width="11" height="11" fill="#E4CD4A" />
<rect x="308" y="660" width="11" height="22" fill="#373560" />
<rect x="319" y="660" width="352" height="11" fill="#899398" />
<rect x="33" y="671" width="176" height="33" fill="#E4EBEF" />
<rect x="253" y="671" width="11" height="33" fill="#E4EBEF" />
<rect x="286" y="671" width="11" height="33" fill="#373560" />
<rect x="319" y="671" width="11" height="22" fill="#373560" />
<rect x="330" y="671" width="352" height="11" fill="#899398" />
<rect x="264" y="682" width="11" height="22" fill="#E4EBEF" />
<rect x="275" y="682" width="11" height="11" fill="#373560" />
<rect x="308" y="682" width="11" height="22" fill="#E4CD4A" />
<rect x="330" y="682" width="11" height="22" fill="#373560" />
<rect x="341" y="682" width="352" height="11" fill="#899398" />
<rect x="275" y="693" width="11" height="11" fill="#E4EBEF" />
<rect x="297" y="693" width="11" height="11" fill="#E4CD4A" />
<rect x="319" y="693" width="11" height="11" fill="#E4CD4A" />
<rect x="341" y="693" width="11" height="11" fill="#373560" />
<rect x="352" y="693" width="352" height="11" fill="#899398" />
</svg>